solid OpenSCAD_Model
  facet normal 0 -1 0
    outer loop
      vertex -7.05556 -61.6826 27.3273
      vertex -7.05556 -61.6826 0
      vertex 76.2839 -61.6826 0
    endloop
  endfacet
  facet normal 0 -1 0
    outer loop
      vertex 63.8694 -61.6826 46.3315
      vertex -7.05556 -61.6826 27.3273
      vertex 76.2839 -61.6826 0
    endloop
  endfacet
  facet normal 0 0 -1
    outer loop
      vertex 22.6039 54.0854 0
      vertex 66.3161 51.6804 0
      vertex -7.05556 51.6804 0
    endloop
  endfacet
  facet normal 0 0 -1
    outer loop
      vertex 21.909 60.4713 0
      vertex -7.05556 61.6826 0
      vertex 22.6039 60.6139 0
    endloop
  endfacet
  facet normal 0 0 -1
    outer loop
      vertex 74.7035 57.4586 0
      vertex 66.3161 51.6804 0
      vertex 76.2839 61.6826 0
    endloop
  endfacet
  facet normal 0 0 -1
    outer loop
      vertex 75.7536 58.3718 0
      vertex 76.2839 61.6427 0
      vertex 76.4025 58.6509 0
    endloop
  endfacet
  facet normal 0 0 -1
    outer loop
      vertex 76.4025 58.6509 0
      vertex 76.2839 61.6427 0
      vertex 77.0719 61.6427 0
    endloop
  endfacet
  facet normal 0 0 -1
    outer loop
      vertex 77.8078 58.7936 0
      vertex 77.0719 61.6427 0
      vertex 78.6136 61.3262 0
    endloop
  endfacet
  facet normal 0 0 -1
    outer loop
      vertex 79.1516 58.3718 0
      vertex 78.6136 61.3262 0
      vertex 80.0534 60.707 0
    endloop
  endfacet
  facet normal 0 0 -1
    outer loop
      vertex 80.2016 57.4586 0
      vertex 80.0534 60.707 0
      vertex 81.3285 59.8122 0
    endloop
  endfacet
  facet normal 0 0 -1
    outer loop
      vertex 80.7763 54.8469 0
      vertex 81.3285 59.8122 0
      vertex 82.3831 58.6808 0
    endloop
  endfacet
  facet normal 0 0 -1
    outer loop
      vertex 66.3161 -51.6804 0
      vertex 82.3831 58.6808 0
      vertex 83.1711 57.3624 0
    endloop
  endfacet
  facet normal 0 0 -1
    outer loop
      vertex 66.3161 -51.6804 0
      vertex 83.1711 57.3624 0
      vertex 83.6582 55.9145 0
    endloop
  endfacet
  facet normal 0 0 -1
    outer loop
      vertex 66.3161 -51.6804 0
      vertex 83.6582 55.9145 0
      vertex 83.8229 54.4004 0
    endloop
  endfacet
  facet normal 0 0 -1
    outer loop
      vertex 66.3161 -51.6804 0
      vertex 83.8229 54.4004 0
      vertex 83.8229 -54.4004 0
    endloop
  endfacet
  facet normal 0 0 -1
    outer loop
      vertex 66.3161 -51.6804 0
      vertex 83.8229 -54.4004 0
      vertex -7.05556 -51.6804 0
    endloop
  endfacet
  facet normal 0 0 -1
    outer loop
      vertex 83.8229 -54.4004 0
      vertex 83.6582 -55.9145 0
      vertex -7.05556 -51.6804 0
    endloop
  endfacet
  facet normal 0 0 -1
    outer loop
      vertex 83.6582 -55.9145 0
      vertex 83.1711 -57.3624 0
      vertex -7.05556 -51.6804 0
    endloop
  endfacet
  facet normal 0 0 -1
    outer loop
      vertex 83.1711 -57.3624 0
      vertex 82.3831 -58.6808 0
      vertex -7.05556 -51.6804 0
    endloop
  endfacet
  facet normal 0 0 -1
    outer loop
      vertex 82.3831 -58.6808 0
      vertex 81.3285 -59.8122 0
      vertex -7.05556 -51.6804 0
    endloop
  endfacet
  facet normal 0 0 -1
    outer loop
      vertex 81.3285 -59.8122 0
      vertex 80.0534 -60.707 0
      vertex -7.05556 -51.6804 0
    endloop
  endfacet
  facet normal 0 0 -1
    outer loop
      vertex 80.0534 -60.707 0
      vertex 78.6136 -61.3262 0
      vertex -7.05556 -51.6804 0
    endloop
  endfacet
  facet normal 0 0 -1
    outer loop
      vertex 78.6136 -61.3262 0
      vertex 77.0719 -61.6427 0
      vertex -7.05556 -51.6804 0
    endloop
  endfacet
  facet normal 0 0 -1
    outer loop
      vertex 77.0719 -61.6427 0
      vertex 76.2839 -61.6427 0
      vertex -7.05556 -51.6804 0
    endloop
  endfacet
  facet normal 0 0 -1
    outer loop
      vertex 76.2839 -61.6427 0
      vertex 76.2839 -61.6826 0
      vertex -7.05556 -51.6804 0
    endloop
  endfacet
  facet normal 0 0 -1
    outer loop
      vertex 76.2839 -61.6826 0
      vertex -7.05556 -61.6826 0
      vertex -7.05556 -51.6804 0
    endloop
  endfacet
  facet normal 0 0 -1
    outer loop
      vertex 26.3571 57.3497 0
      vertex 66.3161 51.6804 0
      vertex 26.2828 56.6673 0
    endloop
  endfacet
  facet normal 0 0 -1
    outer loop
      vertex -7.05556 61.6826 0
      vertex 19.6353 56.6673 0
      vertex -7.05556 51.6804 0
    endloop
  endfacet
  facet normal 0 0 -1
    outer loop
      vertex 19.561 57.3497 0
      vertex -7.05556 61.6826 0
      vertex 19.6353 58.0321 0
    endloop
  endfacet
  facet normal 0 0 -1
    outer loop
      vertex 19.6353 56.6673 0
      vertex 19.8548 56.0147 0
      vertex -7.05556 51.6804 0
    endloop
  endfacet
  facet normal 0 0 -1
    outer loop
      vertex 26.0633 56.0147 0
      vertex 66.3161 51.6804 0
      vertex 25.7081 55.4204 0
    endloop
  endfacet
  facet normal 0 0 -1
    outer loop
      vertex 19.8548 56.0147 0
      vertex 20.21 55.4204 0
      vertex -7.05556 51.6804 0
    endloop
  endfacet
  facet normal 0 0 -1
    outer loop
      vertex 25.7081 55.4204 0
      vertex 66.3161 51.6804 0
      vertex 25.2328 54.9105 0
    endloop
  endfacet
  facet normal 0 0 -1
    outer loop
      vertex 20.21 55.4204 0
      vertex 20.6853 54.9105 0
      vertex -7.05556 51.6804 0
    endloop
  endfacet
  facet normal 0 0 -1
    outer loop
      vertex 25.2328 54.9105 0
      vertex 66.3161 51.6804 0
      vertex 24.6581 54.5072 0
    endloop
  endfacet
  facet normal 0 0 -1
    outer loop
      vertex 20.6853 54.9105 0
      vertex 21.26 54.5072 0
      vertex -7.05556 51.6804 0
    endloop
  endfacet
  facet normal 0 0 -1
    outer loop
      vertex 24.6581 54.5072 0
      vertex 66.3161 51.6804 0
      vertex 24.0091 54.2281 0
    endloop
  endfacet
  facet normal 0 0 -1
    outer loop
      vertex 21.26 54.5072 0
      vertex 21.909 54.2281 0
      vertex -7.05556 51.6804 0
    endloop
  endfacet
  facet normal 0 0 -1
    outer loop
      vertex 23.3142 54.0854 0
      vertex 66.3161 51.6804 0
      vertex 22.6039 54.0854 0
    endloop
  endfacet
  facet normal 0 0 -1
    outer loop
      vertex 21.909 54.2281 0
      vertex 22.6039 54.0854 0
      vertex -7.05556 51.6804 0
    endloop
  endfacet
  facet normal 0 0 -1
    outer loop
      vertex 26.2828 56.6673 0
      vertex 66.3161 51.6804 0
      vertex 26.0633 56.0147 0
    endloop
  endfacet
  facet normal 0 0 -1
    outer loop
      vertex 24.0091 54.2281 0
      vertex 66.3161 51.6804 0
      vertex 23.3142 54.0854 0
    endloop
  endfacet
  facet normal 0 0 -1
    outer loop
      vertex 76.2839 61.6826 0
      vertex 66.3161 51.6804 0
      vertex 26.3571 57.3497 0
    endloop
  endfacet
  facet normal 0 0 -1
    outer loop
      vertex 76.2839 61.6826 0
      vertex 26.3571 57.3497 0
      vertex 26.2828 58.0321 0
    endloop
  endfacet
  facet normal 0 0 -1
    outer loop
      vertex 76.2839 61.6826 0
      vertex 26.2828 58.0321 0
      vertex 26.0633 58.6847 0
    endloop
  endfacet
  facet normal 0 0 -1
    outer loop
      vertex 76.2839 61.6826 0
      vertex 26.0633 58.6847 0
      vertex 25.7081 59.2789 0
    endloop
  endfacet
  facet normal 0 0 -1
    outer loop
      vertex 76.2839 61.6826 0
      vertex 25.7081 59.2789 0
      vertex 25.2328 59.7889 0
    endloop
  endfacet
  facet normal 0 0 -1
    outer loop
      vertex 76.2839 61.6826 0
      vertex 25.2328 59.7889 0
      vertex 24.6581 60.1922 0
    endloop
  endfacet
  facet normal 0 0 -1
    outer loop
      vertex 76.2839 61.6826 0
      vertex 24.6581 60.1922 0
      vertex 24.0091 60.4713 0
    endloop
  endfacet
  facet normal 0 0 -1
    outer loop
      vertex 76.2839 61.6826 0
      vertex 24.0091 60.4713 0
      vertex 23.3142 60.6139 0
    endloop
  endfacet
  facet normal 0 0 -1
    outer loop
      vertex 76.2839 61.6826 0
      vertex 23.3142 60.6139 0
      vertex -7.05556 61.6826 0
    endloop
  endfacet
  facet normal 0 0 -1
    outer loop
      vertex 23.3142 60.6139 0
      vertex 22.6039 60.6139 0
      vertex -7.05556 61.6826 0
    endloop
  endfacet
  facet normal 0 0 -1
    outer loop
      vertex 21.26 60.1922 0
      vertex -7.05556 61.6826 0
      vertex 21.909 60.4713 0
    endloop
  endfacet
  facet normal 0 0 -1
    outer loop
      vertex 20.6853 59.7889 0
      vertex -7.05556 61.6826 0
      vertex 21.26 60.1922 0
    endloop
  endfacet
  facet normal 0 0 -1
    outer loop
      vertex 20.21 59.2789 0
      vertex -7.05556 61.6826 0
      vertex 20.6853 59.7889 0
    endloop
  endfacet
  facet normal 0 0 -1
    outer loop
      vertex 19.8548 58.6847 0
      vertex -7.05556 61.6826 0
      vertex 20.21 59.2789 0
    endloop
  endfacet
  facet normal 0 0 -1
    outer loop
      vertex 19.6353 58.0321 0
      vertex -7.05556 61.6826 0
      vertex 19.8548 58.6847 0
    endloop
  endfacet
  facet normal 0 0 -1
    outer loop
      vertex 75.7536 52.6868 0
      vertex 66.3161 -51.6804 0
      vertex 75.1788 53.0902 0
    endloop
  endfacet
  facet normal 0 0 -1
    outer loop
      vertex 66.3161 -51.6804 0
      vertex 66.3161 51.6804 0
      vertex 74.1288 54.8469 0
    endloop
  endfacet
  facet normal 0 0 -1
    outer loop
      vertex 66.3161 -51.6804 0
      vertex 74.1288 54.8469 0
      vertex 74.3483 54.1943 0
    endloop
  endfacet
  facet normal 0 0 -1
    outer loop
      vertex 66.3161 -51.6804 0
      vertex 74.3483 54.1943 0
      vertex 74.7035 53.6001 0
    endloop
  endfacet
  facet normal 0 0 -1
    outer loop
      vertex 66.3161 -51.6804 0
      vertex 74.7035 53.6001 0
      vertex 75.1788 53.0902 0
    endloop
  endfacet
  facet normal 0 0 -1
    outer loop
      vertex 76.4025 52.4077 0
      vertex 66.3161 -51.6804 0
      vertex 75.7536 52.6868 0
    endloop
  endfacet
  facet normal 0 0 -1
    outer loop
      vertex 77.8078 52.2651 0
      vertex 66.3161 -51.6804 0
      vertex 77.0974 52.2651 0
    endloop
  endfacet
  facet normal 0 0 -1
    outer loop
      vertex 66.3161 -51.6804 0
      vertex 76.4025 52.4077 0
      vertex 77.0974 52.2651 0
    endloop
  endfacet
  facet normal 0 0 -1
    outer loop
      vertex 79.1516 52.6868 0
      vertex 66.3161 -51.6804 0
      vertex 78.5026 52.4077 0
    endloop
  endfacet
  facet normal 0 0 -1
    outer loop
      vertex 66.3161 -51.6804 0
      vertex 77.8078 52.2651 0
      vertex 78.5026 52.4077 0
    endloop
  endfacet
  facet normal 0 0 -1
    outer loop
      vertex 79.1516 58.3718 0
      vertex 80.0534 60.707 0
      vertex 79.7263 57.9685 0
    endloop
  endfacet
  facet normal 0 0 -1
    outer loop
      vertex 66.3161 -51.6804 0
      vertex 79.1516 52.6868 0
      vertex 79.7263 53.0902 0
    endloop
  endfacet
  facet normal 0 0 -1
    outer loop
      vertex 66.3161 -51.6804 0
      vertex 79.7263 53.0902 0
      vertex 80.2016 53.6001 0
    endloop
  endfacet
  facet normal 0 0 -1
    outer loop
      vertex 66.3161 -51.6804 0
      vertex 80.2016 53.6001 0
      vertex 80.5568 54.1943 0
    endloop
  endfacet
  facet normal 0 0 -1
    outer loop
      vertex 80.8506 55.5293 0
      vertex 81.3285 59.8122 0
      vertex 80.7763 54.8469 0
    endloop
  endfacet
  facet normal 0 0 -1
    outer loop
      vertex 66.3161 -51.6804 0
      vertex 80.7763 54.8469 0
      vertex 82.3831 58.6808 0
    endloop
  endfacet
  facet normal 0 0 -1
    outer loop
      vertex 80.7763 56.2118 0
      vertex 81.3285 59.8122 0
      vertex 80.8506 55.5293 0
    endloop
  endfacet
  facet normal 0 0 -1
    outer loop
      vertex 80.5568 56.8643 0
      vertex 81.3285 59.8122 0
      vertex 80.7763 56.2118 0
    endloop
  endfacet
  facet normal 0 0 -1
    outer loop
      vertex 80.2016 57.4586 0
      vertex 81.3285 59.8122 0
      vertex 80.5568 56.8643 0
    endloop
  endfacet
  facet normal 0 0 -1
    outer loop
      vertex 79.7263 57.9685 0
      vertex 80.0534 60.707 0
      vertex 80.2016 57.4586 0
    endloop
  endfacet
  facet normal 0 0 -1
    outer loop
      vertex 80.7763 54.8469 0
      vertex 66.3161 -51.6804 0
      vertex 80.5568 54.1943 0
    endloop
  endfacet
  facet normal 0 0 -1
    outer loop
      vertex 78.5026 58.6509 0
      vertex 78.6136 61.3262 0
      vertex 79.1516 58.3718 0
    endloop
  endfacet
  facet normal 0 0 -1
    outer loop
      vertex 77.8078 58.7936 0
      vertex 78.6136 61.3262 0
      vertex 78.5026 58.6509 0
    endloop
  endfacet
  facet normal 0 0 -1
    outer loop
      vertex 77.0974 58.7936 0
      vertex 77.0719 61.6427 0
      vertex 77.8078 58.7936 0
    endloop
  endfacet
  facet normal 0 0 -1
    outer loop
      vertex 76.4025 58.6509 0
      vertex 77.0719 61.6427 0
      vertex 77.0974 58.7936 0
    endloop
  endfacet
  facet normal 0 0 -1
    outer loop
      vertex 75.7536 58.3718 0
      vertex 76.2839 61.6826 0
      vertex 76.2839 61.6427 0
    endloop
  endfacet
  facet normal 0 0 -1
    outer loop
      vertex 75.1788 57.9685 0
      vertex 76.2839 61.6826 0
      vertex 75.7536 58.3718 0
    endloop
  endfacet
  facet normal 0 0 -1
    outer loop
      vertex 74.7035 57.4586 0
      vertex 76.2839 61.6826 0
      vertex 75.1788 57.9685 0
    endloop
  endfacet
  facet normal 0 0 -1
    outer loop
      vertex 74.3483 56.8643 0
      vertex 66.3161 51.6804 0
      vertex 74.7035 57.4586 0
    endloop
  endfacet
  facet normal 0 0 -1
    outer loop
      vertex 74.1288 56.2118 0
      vertex 66.3161 51.6804 0
      vertex 74.3483 56.8643 0
    endloop
  endfacet
  facet normal 0 0 -1
    outer loop
      vertex 74.0545 55.5293 0
      vertex 66.3161 51.6804 0
      vertex 74.1288 56.2118 0
    endloop
  endfacet
  facet normal 0 0 -1
    outer loop
      vertex 74.1288 54.8469 0
      vertex 66.3161 51.6804 0
      vertex 74.0545 55.5293 0
    endloop
  endfacet
  facet normal 0 0 -1
    outer loop
      vertex 19.6353 56.6673 0
      vertex -7.05556 61.6826 0
      vertex 19.561 57.3497 0
    endloop
  endfacet
  facet normal -1 0 0
    outer loop
      vertex -7.05556 -51.6804 27.3273
      vertex -7.05556 -51.6804 0
      vertex -7.05556 -61.6826 27.3273
    endloop
  endfacet
  facet normal -1 0 0
    outer loop
      vertex -7.05556 -61.6826 27.3273
      vertex -7.05556 -51.6804 0
      vertex -7.05556 -61.6826 0
    endloop
  endfacet
  facet normal -0.258819 0 0.965926
    outer loop
      vertex -7.05556 -51.6804 27.3273
      vertex -7.05556 -61.6826 27.3273
      vertex 63.8694 -61.6826 46.3315
    endloop
  endfacet
  facet normal -0.258819 0 0.965926
    outer loop
      vertex 64.6046 -61.6427 46.5286
      vertex -7.05556 -51.6804 27.3273
      vertex 63.8694 -61.6427 46.3315
    endloop
  endfacet
  facet normal -0.258819 0 0.965926
    outer loop
      vertex 63.8694 -61.6427 46.3315
      vertex -7.05556 -51.6804 27.3273
      vertex 63.8694 -61.6826 46.3315
    endloop
  endfacet
  facet normal -0.258819 0 0.965926
    outer loop
      vertex 66.043 -61.3262 46.914
      vertex -7.05556 -51.6804 27.3273
      vertex 64.6046 -61.6427 46.5286
    endloop
  endfacet
  facet normal -0.258819 0 0.965926
    outer loop
      vertex 67.3864 -60.707 47.2739
      vertex -7.05556 -51.6804 27.3273
      vertex 66.043 -61.3262 46.914
    endloop
  endfacet
  facet normal -0.258819 0 0.965926
    outer loop
      vertex 68.5761 -59.8122 47.5927
      vertex -7.05556 -51.6804 27.3273
      vertex 67.3864 -60.707 47.2739
    endloop
  endfacet
  facet normal -0.258819 0 0.965926
    outer loop
      vertex 69.56 -58.6808 47.8563
      vertex -7.05556 -51.6804 27.3273
      vertex 68.5761 -59.8122 47.5927
    endloop
  endfacet
  facet normal -0.258819 0 0.965926
    outer loop
      vertex 70.2953 -57.3624 48.0534
      vertex -7.05556 -51.6804 27.3273
      vertex 69.56 -58.6808 47.8563
    endloop
  endfacet
  facet normal -0.258819 0 0.965926
    outer loop
      vertex 70.7497 -55.9145 48.1751
      vertex -7.05556 -51.6804 27.3273
      vertex 70.2953 -57.3624 48.0534
    endloop
  endfacet
  facet normal -0.258819 0 0.965926
    outer loop
      vertex 70.9034 -54.4004 48.2163
      vertex -7.05556 -51.6804 27.3273
      vertex 70.7497 -55.9145 48.1751
    endloop
  endfacet
  facet normal -0.258819 0 0.965926
    outer loop
      vertex 66.3161 -51.6804 46.9871
      vertex -7.05556 -51.6804 27.3273
      vertex 70.9034 -54.4004 48.2163
    endloop
  endfacet
  facet normal -0.258819 0 0.965926
    outer loop
      vertex 14.448 60.6139 33.0891
      vertex 15.0963 60.4713 33.2628
      vertex 63.8694 61.6826 46.3315
    endloop
  endfacet
  facet normal -0.258819 0 0.965926
    outer loop
      vertex 16.6815 55.4204 33.6876
      vertex 16.2381 54.9105 33.5688
      vertex 63.8694 61.6826 46.3315
    endloop
  endfacet
  facet normal -0.258819 0 0.965926
    outer loop
      vertex 66.3161 51.6804 46.9871
      vertex 70.9034 54.4004 48.2163
      vertex 70.7497 55.9145 48.1751
    endloop
  endfacet
  facet normal -0.258819 0 0.965926
    outer loop
      vertex 14.448 54.0854 33.0891
      vertex 13.7852 54.0854 32.9115
      vertex -7.05556 51.6804 27.3273
    endloop
  endfacet
  facet normal -0.258819 0 0.965926
    outer loop
      vertex 70.2953 57.3624 48.0534
      vertex 66.3161 51.6804 46.9871
      vertex 70.7497 55.9145 48.1751
    endloop
  endfacet
  facet normal -0.258819 0 0.965926
    outer loop
      vertex 70.9034 54.4004 48.2163
      vertex 66.3161 -51.6804 46.9871
      vertex 70.9034 -54.4004 48.2163
    endloop
  endfacet
  facet normal -0.258819 0 0.965926
    outer loop
      vertex -7.05556 61.6826 27.3273
      vertex -7.05556 51.6804 27.3273
      vertex 11.0155 56.6673 32.1694
    endloop
  endfacet
  facet normal -0.258819 0 0.965926
    outer loop
      vertex 17.287 57.3497 33.8498
      vertex 17.2178 56.6673 33.8313
      vertex 63.8694 61.6826 46.3315
    endloop
  endfacet
  facet normal -0.258819 0 0.965926
    outer loop
      vertex -7.05556 61.6826 27.3273
      vertex 11.0155 56.6673 32.1694
      vertex 10.9462 57.3497 32.1508
    endloop
  endfacet
  facet normal -0.258819 0 0.965926
    outer loop
      vertex 17.2178 58.0321 33.8313
      vertex 17.287 57.3497 33.8498
      vertex 63.8694 61.6826 46.3315
    endloop
  endfacet
  facet normal -0.258819 0 0.965926
    outer loop
      vertex -7.05556 61.6826 27.3273
      vertex 10.9462 57.3497 32.1508
      vertex 11.0155 58.0321 32.1694
    endloop
  endfacet
  facet normal -0.258819 0 0.965926
    outer loop
      vertex 17.0129 58.6847 33.7764
      vertex 17.2178 58.0321 33.8313
      vertex 63.8694 61.6826 46.3315
    endloop
  endfacet
  facet normal -0.258819 0 0.965926
    outer loop
      vertex -7.05556 61.6826 27.3273
      vertex 11.0155 58.0321 32.1694
      vertex 11.2203 58.6847 32.2243
    endloop
  endfacet
  facet normal -0.258819 0 0.965926
    outer loop
      vertex 16.6815 59.2789 33.6876
      vertex 17.0129 58.6847 33.7764
      vertex 63.8694 61.6826 46.3315
    endloop
  endfacet
  facet normal -0.258819 0 0.965926
    outer loop
      vertex -7.05556 61.6826 27.3273
      vertex 11.2203 58.6847 32.2243
      vertex 11.5517 59.2789 32.3131
    endloop
  endfacet
  facet normal -0.258819 0 0.965926
    outer loop
      vertex 16.2381 59.7889 33.5688
      vertex 16.6815 59.2789 33.6876
      vertex 63.8694 61.6826 46.3315
    endloop
  endfacet
  facet normal -0.258819 0 0.965926
    outer loop
      vertex -7.05556 61.6826 27.3273
      vertex 11.5517 59.2789 32.3131
      vertex 11.9952 59.7889 32.4319
    endloop
  endfacet
  facet normal -0.258819 0 0.965926
    outer loop
      vertex 15.7018 60.1922 33.4251
      vertex 16.2381 59.7889 33.5688
      vertex 63.8694 61.6826 46.3315
    endloop
  endfacet
  facet normal -0.258819 0 0.965926
    outer loop
      vertex -7.05556 61.6826 27.3273
      vertex 11.9952 59.7889 32.4319
      vertex 12.5314 60.1922 32.5756
    endloop
  endfacet
  facet normal -0.258819 0 0.965926
    outer loop
      vertex 15.0963 60.4713 33.2628
      vertex 15.7018 60.1922 33.4251
      vertex 63.8694 61.6826 46.3315
    endloop
  endfacet
  facet normal -0.258819 0 0.965926
    outer loop
      vertex -7.05556 61.6826 27.3273
      vertex 12.5314 60.1922 32.5756
      vertex 13.1369 60.4713 32.7378
    endloop
  endfacet
  facet normal -0.258819 0 0.965926
    outer loop
      vertex -7.05556 61.6826 27.3273
      vertex 13.7852 60.6139 32.9115
      vertex 63.8694 61.6826 46.3315
    endloop
  endfacet
  facet normal -0.258819 0 0.965926
    outer loop
      vertex -7.05556 61.6826 27.3273
      vertex 13.1369 60.4713 32.7378
      vertex 13.7852 60.6139 32.9115
    endloop
  endfacet
  facet normal -0.258819 0 0.965926
    outer loop
      vertex 13.7852 60.6139 32.9115
      vertex 14.448 60.6139 33.0891
      vertex 63.8694 61.6826 46.3315
    endloop
  endfacet
  facet normal -0.258819 0 0.965926
    outer loop
      vertex 17.2178 56.6673 33.8313
      vertex 17.0129 56.0147 33.7764
      vertex 63.8694 61.6826 46.3315
    endloop
  endfacet
  facet normal -0.258819 0 0.965926
    outer loop
      vertex 17.0129 56.0147 33.7764
      vertex 16.6815 55.4204 33.6876
      vertex 63.8694 61.6826 46.3315
    endloop
  endfacet
  facet normal -0.258819 0 0.965926
    outer loop
      vertex 13.7852 54.0854 32.9115
      vertex 13.1369 54.2281 32.7378
      vertex -7.05556 51.6804 27.3273
    endloop
  endfacet
  facet normal -0.258819 0 0.965926
    outer loop
      vertex 13.1369 54.2281 32.7378
      vertex 12.5314 54.5072 32.5756
      vertex -7.05556 51.6804 27.3273
    endloop
  endfacet
  facet normal -0.258819 0 0.965926
    outer loop
      vertex 12.5314 54.5072 32.5756
      vertex 11.9952 54.9105 32.4319
      vertex -7.05556 51.6804 27.3273
    endloop
  endfacet
  facet normal -0.258819 0 0.965926
    outer loop
      vertex 63.9801 58.6509 46.3612
      vertex 64.6284 58.7936 46.5349
      vertex 66.043 61.3262 46.914
    endloop
  endfacet
  facet normal -0.258819 0 0.965926
    outer loop
      vertex 11.9952 54.9105 32.4319
      vertex 11.5517 55.4204 32.3131
      vertex -7.05556 51.6804 27.3273
    endloop
  endfacet
  facet normal -0.258819 0 0.965926
    outer loop
      vertex 11.5517 55.4204 32.3131
      vertex 11.2203 56.0147 32.2243
      vertex -7.05556 51.6804 27.3273
    endloop
  endfacet
  facet normal -0.258819 0 0.965926
    outer loop
      vertex 62.3949 57.4586 45.9365
      vertex 62.8384 57.9685 46.0553
      vertex 64.6046 61.6427 46.5286
    endloop
  endfacet
  facet normal -0.258819 0 0.965926
    outer loop
      vertex 11.0155 56.6673 32.1694
      vertex -7.05556 51.6804 27.3273
      vertex 11.2203 56.0147 32.2243
    endloop
  endfacet
  facet normal -0.258819 0 0.965926
    outer loop
      vertex 65.9395 58.6509 46.8862
      vertex 66.545 58.3718 47.0485
      vertex 67.3864 60.707 47.2739
    endloop
  endfacet
  facet normal -0.258819 0 0.965926
    outer loop
      vertex 62.8384 57.9685 46.0553
      vertex 63.3746 58.3718 46.199
      vertex 64.6046 61.6427 46.5286
    endloop
  endfacet
  facet normal -0.258819 0 0.965926
    outer loop
      vertex 64.6046 61.6427 46.5286
      vertex 62.0635 56.8643 45.8477
      vertex 62.3949 57.4586 45.9365
    endloop
  endfacet
  facet normal -0.258819 0 0.965926
    outer loop
      vertex 64.6046 61.6427 46.5286
      vertex 63.3746 58.3718 46.199
      vertex 66.043 61.3262 46.914
    endloop
  endfacet
  facet normal -0.258819 0 0.965926
    outer loop
      vertex 63.3746 58.3718 46.199
      vertex 63.9801 58.6509 46.3612
      vertex 66.043 61.3262 46.914
    endloop
  endfacet
  facet normal -0.258819 0 0.965926
    outer loop
      vertex 66.043 61.3262 46.914
      vertex 64.6284 58.7936 46.5349
      vertex 67.3864 60.707 47.2739
    endloop
  endfacet
  facet normal -0.258819 0 0.965926
    outer loop
      vertex 64.6284 58.7936 46.5349
      vertex 65.2912 58.7936 46.7125
      vertex 67.3864 60.707 47.2739
    endloop
  endfacet
  facet normal -0.258819 0 0.965926
    outer loop
      vertex 67.3864 60.707 47.2739
      vertex 66.545 58.3718 47.0485
      vertex 68.5761 59.8122 47.5927
    endloop
  endfacet
  facet normal -0.258819 0 0.965926
    outer loop
      vertex 66.545 58.3718 47.0485
      vertex 67.0812 57.9685 47.1921
      vertex 68.5761 59.8122 47.5927
    endloop
  endfacet
  facet normal -0.258819 0 0.965926
    outer loop
      vertex 68.5761 59.8122 47.5927
      vertex 67.5247 57.4586 47.311
      vertex 69.56 58.6808 47.8563
    endloop
  endfacet
  facet normal -0.258819 0 0.965926
    outer loop
      vertex 67.5247 57.4586 47.311
      vertex 67.8561 56.8643 47.3998
      vertex 69.56 58.6808 47.8563
    endloop
  endfacet
  facet normal -0.258819 0 0.965926
    outer loop
      vertex 69.56 58.6808 47.8563
      vertex 68.0609 56.2118 47.4547
      vertex 70.2953 57.3624 48.0534
    endloop
  endfacet
  facet normal -0.258819 0 0.965926
    outer loop
      vertex 68.0609 56.2118 47.4547
      vertex 68.1302 55.5293 47.4732
      vertex 70.2953 57.3624 48.0534
    endloop
  endfacet
  facet normal -0.258819 0 0.965926
    outer loop
      vertex 68.1302 55.5293 47.4732
      vertex 68.0609 54.8469 47.4547
      vertex 70.2953 57.3624 48.0534
    endloop
  endfacet
  facet normal -0.258819 0 0.965926
    outer loop
      vertex 68.0609 54.8469 47.4547
      vertex 67.8561 54.1943 47.3998
      vertex 70.2953 57.3624 48.0534
    endloop
  endfacet
  facet normal -0.258819 0 0.965926
    outer loop
      vertex 67.8561 54.1943 47.3998
      vertex 67.5247 53.6001 47.311
      vertex 70.2953 57.3624 48.0534
    endloop
  endfacet
  facet normal -0.258819 0 0.965926
    outer loop
      vertex 66.3161 51.6804 46.9871
      vertex 66.3161 -51.6804 46.9871
      vertex 70.9034 54.4004 48.2163
    endloop
  endfacet
  facet normal -0.258819 0 0.965926
    outer loop
      vertex 15.7018 54.5072 33.4251
      vertex 63.8694 61.6826 46.3315
      vertex 16.2381 54.9105 33.5688
    endloop
  endfacet
  facet normal -0.258819 0 0.965926
    outer loop
      vertex 15.0963 54.2281 33.2628
      vertex 63.8694 61.6826 46.3315
      vertex 15.7018 54.5072 33.4251
    endloop
  endfacet
  facet normal -0.258819 0 0.965926
    outer loop
      vertex 14.448 54.0854 33.0891
      vertex 63.8694 61.6826 46.3315
      vertex 15.0963 54.2281 33.2628
    endloop
  endfacet
  facet normal -0.258819 0 0.965926
    outer loop
      vertex 14.448 54.0854 33.0891
      vertex 63.8694 61.6427 46.3315
      vertex 63.8694 61.6826 46.3315
    endloop
  endfacet
  facet normal -0.258819 0 0.965926
    outer loop
      vertex 14.448 54.0854 33.0891
      vertex 64.6046 61.6427 46.5286
      vertex 63.8694 61.6427 46.3315
    endloop
  endfacet
  facet normal -0.258819 0 0.965926
    outer loop
      vertex 14.448 54.0854 33.0891
      vertex 62.0635 56.8643 45.8477
      vertex 64.6046 61.6427 46.5286
    endloop
  endfacet
  facet normal -0.258819 0 0.965926
    outer loop
      vertex -7.05556 51.6804 27.3273
      vertex 62.0635 56.8643 45.8477
      vertex 14.448 54.0854 33.0891
    endloop
  endfacet
  facet normal -0.258819 0 0.965926
    outer loop
      vertex -7.05556 51.6804 27.3273
      vertex 61.8587 56.2118 45.7928
      vertex 62.0635 56.8643 45.8477
    endloop
  endfacet
  facet normal -0.258819 0 0.965926
    outer loop
      vertex -7.05556 51.6804 27.3273
      vertex 61.7894 55.5293 45.7742
      vertex 61.8587 56.2118 45.7928
    endloop
  endfacet
  facet normal -0.258819 0 0.965926
    outer loop
      vertex 65.2912 58.7936 46.7125
      vertex 65.9395 58.6509 46.8862
      vertex 67.3864 60.707 47.2739
    endloop
  endfacet
  facet normal -0.258819 0 0.965926
    outer loop
      vertex -7.05556 51.6804 27.3273
      vertex 61.8587 54.8469 45.7928
      vertex 61.7894 55.5293 45.7742
    endloop
  endfacet
  facet normal -0.258819 0 0.965926
    outer loop
      vertex -7.05556 51.6804 27.3273
      vertex 62.0635 54.1943 45.8477
      vertex 61.8587 54.8469 45.7928
    endloop
  endfacet
  facet normal -0.258819 0 0.965926
    outer loop
      vertex -7.05556 51.6804 27.3273
      vertex 62.3949 53.6001 45.9365
      vertex 62.0635 54.1943 45.8477
    endloop
  endfacet
  facet normal -0.258819 0 0.965926
    outer loop
      vertex 67.0812 57.9685 47.1921
      vertex 67.5247 57.4586 47.311
      vertex 68.5761 59.8122 47.5927
    endloop
  endfacet
  facet normal -0.258819 0 0.965926
    outer loop
      vertex -7.05556 51.6804 27.3273
      vertex 62.8384 53.0902 46.0553
      vertex 62.3949 53.6001 45.9365
    endloop
  endfacet
  facet normal -0.258819 0 0.965926
    outer loop
      vertex -7.05556 51.6804 27.3273
      vertex 63.3746 52.6868 46.199
      vertex 62.8384 53.0902 46.0553
    endloop
  endfacet
  facet normal -0.258819 0 0.965926
    outer loop
      vertex 67.8561 56.8643 47.3998
      vertex 68.0609 56.2118 47.4547
      vertex 69.56 58.6808 47.8563
    endloop
  endfacet
  facet normal -0.258819 0 0.965926
    outer loop
      vertex -7.05556 51.6804 27.3273
      vertex 63.9801 52.4077 46.3612
      vertex 63.3746 52.6868 46.199
    endloop
  endfacet
  facet normal -0.258819 0 0.965926
    outer loop
      vertex -7.05556 51.6804 27.3273
      vertex 64.6284 52.2651 46.5349
      vertex 63.9801 52.4077 46.3612
    endloop
  endfacet
  facet normal -0.258819 0 0.965926
    outer loop
      vertex -7.05556 51.6804 27.3273
      vertex 65.2912 52.2651 46.7125
      vertex 64.6284 52.2651 46.5349
    endloop
  endfacet
  facet normal -0.258819 0 0.965926
    outer loop
      vertex 67.5247 53.6001 47.311
      vertex 66.3161 51.6804 46.9871
      vertex 70.2953 57.3624 48.0534
    endloop
  endfacet
  facet normal -0.258819 0 0.965926
    outer loop
      vertex 67.0812 53.0902 47.1921
      vertex 66.3161 51.6804 46.9871
      vertex 67.5247 53.6001 47.311
    endloop
  endfacet
  facet normal -0.258819 0 0.965926
    outer loop
      vertex 66.545 52.6868 47.0485
      vertex 66.3161 51.6804 46.9871
      vertex 67.0812 53.0902 47.1921
    endloop
  endfacet
  facet normal -0.258819 0 0.965926
    outer loop
      vertex 65.9395 52.4077 46.8862
      vertex 66.3161 51.6804 46.9871
      vertex 66.545 52.6868 47.0485
    endloop
  endfacet
  facet normal -0.258819 0 0.965926
    outer loop
      vertex 65.2912 52.2651 46.7125
      vertex 66.3161 51.6804 46.9871
      vertex 65.9395 52.4077 46.8862
    endloop
  endfacet
  facet normal -0.258819 0 0.965926
    outer loop
      vertex -7.05556 51.6804 27.3273
      vertex 66.3161 51.6804 46.9871
      vertex 65.2912 52.2651 46.7125
    endloop
  endfacet
  facet normal 0.965926 0 0.258819
    outer loop
      vertex 63.8694 -61.6427 46.3315
      vertex 63.8694 -61.6826 46.3315
      vertex 76.2839 -61.6826 0
    endloop
  endfacet
  facet normal 0.965926 0 0.258819
    outer loop
      vertex 76.2839 -61.6427 0
      vertex 63.8694 -61.6427 46.3315
      vertex 76.2839 -61.6826 0
    endloop
  endfacet
  facet normal 0 1 0
    outer loop
      vertex 66.3161 -51.6804 46.9871
      vertex 66.3161 -51.6804 0
      vertex -7.05556 -51.6804 27.3273
    endloop
  endfacet
  facet normal 0 1 0
    outer loop
      vertex -7.05556 -51.6804 27.3273
      vertex 66.3161 -51.6804 0
      vertex -7.05556 -51.6804 0
    endloop
  endfacet
  facet normal 0 -1 0
    outer loop
      vertex 64.6046 -61.6427 46.5286
      vertex 63.8694 -61.6427 46.3315
      vertex 76.2839 -61.6427 0
    endloop
  endfacet
  facet normal 0 -1 0
    outer loop
      vertex 77.0719 -61.6427 0
      vertex 64.6046 -61.6427 46.5286
      vertex 76.2839 -61.6427 0
    endloop
  endfacet
  facet normal 0.200827 -0.978148 0.0538115
    outer loop
      vertex 66.043 -61.3262 46.914
      vertex 64.6046 -61.6427 46.5286
      vertex 77.0719 -61.6427 0
    endloop
  endfacet
  facet normal 0.200827 -0.978148 0.0538115
    outer loop
      vertex 78.6136 -61.3262 0
      vertex 66.043 -61.3262 46.914
      vertex 77.0719 -61.6427 0
    endloop
  endfacet
  facet normal 0.392877 -0.913545 0.105271
    outer loop
      vertex 67.3864 -60.707 47.2739
      vertex 66.043 -61.3262 46.914
      vertex 78.6136 -61.3262 0
    endloop
  endfacet
  facet normal 0.392877 -0.913545 0.105271
    outer loop
      vertex 80.0534 -60.707 0
      vertex 67.3864 -60.707 47.2739
      vertex 78.6136 -61.3262 0
    endloop
  endfacet
  facet normal 0.567757 -0.809017 0.15213
    outer loop
      vertex 68.5761 -59.8122 47.5927
      vertex 67.3864 -60.707 47.2739
      vertex 80.0534 -60.707 0
    endloop
  endfacet
  facet normal 0.567757 -0.809017 0.15213
    outer loop
      vertex 81.3285 -59.8122 0
      vertex 68.5761 -59.8122 47.5927
      vertex 80.0534 -60.707 0
    endloop
  endfacet
  facet normal 0.717823 -0.669131 0.19234
    outer loop
      vertex 69.56 -58.6808 47.8563
      vertex 68.5761 -59.8122 47.5927
      vertex 81.3285 -59.8122 0
    endloop
  endfacet
  facet normal 0.717823 -0.669131 0.19234
    outer loop
      vertex 82.3831 -58.6808 0
      vertex 69.56 -58.6808 47.8563
      vertex 81.3285 -59.8122 0
    endloop
  endfacet
  facet normal 0.836516 -0.5 0.224144
    outer loop
      vertex 70.2953 -57.3624 48.0534
      vertex 69.56 -58.6808 47.8563
      vertex 82.3831 -58.6808 0
    endloop
  endfacet
  facet normal 0.836516 -0.5 0.224144
    outer loop
      vertex 83.1711 -57.3624 0
      vertex 70.2953 -57.3624 48.0534
      vertex 82.3831 -58.6808 0
    endloop
  endfacet
  facet normal 0.91865 -0.309017 0.246152
    outer loop
      vertex 70.7497 -55.9145 48.1751
      vertex 70.2953 -57.3624 48.0534
      vertex 83.1711 -57.3624 0
    endloop
  endfacet
  facet normal 0.91865 -0.309017 0.246152
    outer loop
      vertex 83.6582 -55.9145 0
      vertex 70.7497 -55.9145 48.1751
      vertex 83.1711 -57.3624 0
    endloop
  endfacet
  facet normal 0.960634 -0.104528 0.257401
    outer loop
      vertex 70.9034 -54.4004 48.2163
      vertex 70.7497 -55.9145 48.1751
      vertex 83.6582 -55.9145 0
    endloop
  endfacet
  facet normal 0.960634 -0.104528 0.257401
    outer loop
      vertex 83.8229 -54.4004 0
      vertex 70.9034 -54.4004 48.2163
      vertex 83.6582 -55.9145 0
    endloop
  endfacet
  facet normal 0.965926 0 0.258819
    outer loop
      vertex 70.9034 54.4004 48.2163
      vertex 70.9034 -54.4004 48.2163
      vertex 83.8229 -54.4004 0
    endloop
  endfacet
  facet normal 0.965926 0 0.258819
    outer loop
      vertex 83.8229 54.4004 0
      vertex 70.9034 54.4004 48.2163
      vertex 83.8229 -54.4004 0
    endloop
  endfacet
  facet normal 0.960634 0.104528 0.257401
    outer loop
      vertex 83.6582 55.9145 0
      vertex 70.7497 55.9145 48.1751
      vertex 70.9034 54.4004 48.2163
    endloop
  endfacet
  facet normal 0.960634 0.104528 0.257401
    outer loop
      vertex 83.8229 54.4004 0
      vertex 83.6582 55.9145 0
      vertex 70.9034 54.4004 48.2163
    endloop
  endfacet
  facet normal 0.91865 0.309017 0.246152
    outer loop
      vertex 83.1711 57.3624 0
      vertex 70.2953 57.3624 48.0534
      vertex 70.7497 55.9145 48.1751
    endloop
  endfacet
  facet normal 0.91865 0.309017 0.246152
    outer loop
      vertex 83.6582 55.9145 0
      vertex 83.1711 57.3624 0
      vertex 70.7497 55.9145 48.1751
    endloop
  endfacet
  facet normal 0.836516 0.5 0.224144
    outer loop
      vertex 82.3831 58.6808 0
      vertex 69.56 58.6808 47.8563
      vertex 70.2953 57.3624 48.0534
    endloop
  endfacet
  facet normal 0.836516 0.5 0.224144
    outer loop
      vertex 83.1711 57.3624 0
      vertex 82.3831 58.6808 0
      vertex 70.2953 57.3624 48.0534
    endloop
  endfacet
  facet normal 0.717823 0.669131 0.19234
    outer loop
      vertex 81.3285 59.8122 0
      vertex 68.5761 59.8122 47.5927
      vertex 69.56 58.6808 47.8563
    endloop
  endfacet
  facet normal 0.717823 0.669131 0.19234
    outer loop
      vertex 82.3831 58.6808 0
      vertex 81.3285 59.8122 0
      vertex 69.56 58.6808 47.8563
    endloop
  endfacet
  facet normal 0.567757 0.809017 0.15213
    outer loop
      vertex 67.3864 60.707 47.2739
      vertex 68.5761 59.8122 47.5927
      vertex 80.0534 60.707 0
    endloop
  endfacet
  facet normal 0.567757 0.809017 0.15213
    outer loop
      vertex 80.0534 60.707 0
      vertex 68.5761 59.8122 47.5927
      vertex 81.3285 59.8122 0
    endloop
  endfacet
  facet normal 0.392877 0.913545 0.105271
    outer loop
      vertex 66.043 61.3262 46.914
      vertex 67.3864 60.707 47.2739
      vertex 78.6136 61.3262 0
    endloop
  endfacet
  facet normal 0.392877 0.913545 0.105271
    outer loop
      vertex 78.6136 61.3262 0
      vertex 67.3864 60.707 47.2739
      vertex 80.0534 60.707 0
    endloop
  endfacet
  facet normal 0.200827 0.978148 0.0538115
    outer loop
      vertex 64.6046 61.6427 46.5286
      vertex 66.043 61.3262 46.914
      vertex 77.0719 61.6427 0
    endloop
  endfacet
  facet normal 0.200827 0.978148 0.0538115
    outer loop
      vertex 77.0719 61.6427 0
      vertex 66.043 61.3262 46.914
      vertex 78.6136 61.3262 0
    endloop
  endfacet
  facet normal 0 1 0
    outer loop
      vertex 63.8694 61.6427 46.3315
      vertex 64.6046 61.6427 46.5286
      vertex 76.2839 61.6427 0
    endloop
  endfacet
  facet normal 0 1 0
    outer loop
      vertex 76.2839 61.6427 0
      vertex 64.6046 61.6427 46.5286
      vertex 77.0719 61.6427 0
    endloop
  endfacet
  facet normal 0.965926 0 0.258819
    outer loop
      vertex 63.8694 61.6826 46.3315
      vertex 63.8694 61.6427 46.3315
      vertex 76.2839 61.6427 0
    endloop
  endfacet
  facet normal 0.965926 0 0.258819
    outer loop
      vertex 76.2839 61.6826 0
      vertex 63.8694 61.6826 46.3315
      vertex 76.2839 61.6427 0
    endloop
  endfacet
  facet normal 0 1 0
    outer loop
      vertex -7.05556 61.6826 0
      vertex -7.05556 61.6826 27.3273
      vertex 76.2839 61.6826 0
    endloop
  endfacet
  facet normal 0 1 0
    outer loop
      vertex 76.2839 61.6826 0
      vertex -7.05556 61.6826 27.3273
      vertex 63.8694 61.6826 46.3315
    endloop
  endfacet
  facet normal -1 0 0
    outer loop
      vertex -7.05556 61.6826 27.3273
      vertex -7.05556 61.6826 0
      vertex -7.05556 51.6804 27.3273
    endloop
  endfacet
  facet normal -1 0 0
    outer loop
      vertex -7.05556 51.6804 27.3273
      vertex -7.05556 61.6826 0
      vertex -7.05556 51.6804 0
    endloop
  endfacet
  facet normal 0 -1 0
    outer loop
      vertex 66.3161 51.6804 0
      vertex 66.3161 51.6804 46.9871
      vertex -7.05556 51.6804 27.3273
    endloop
  endfacet
  facet normal 0 -1 0
    outer loop
      vertex -7.05556 51.6804 0
      vertex 66.3161 51.6804 0
      vertex -7.05556 51.6804 27.3273
    endloop
  endfacet
  facet normal -1 0 0
    outer loop
      vertex 66.3161 51.6804 46.9871
      vertex 66.3161 51.6804 0
      vertex 66.3161 -51.6804 46.9871
    endloop
  endfacet
  facet normal -1 0 0
    outer loop
      vertex 66.3161 -51.6804 46.9871
      vertex 66.3161 51.6804 0
      vertex 66.3161 -51.6804 0
    endloop
  endfacet
  facet normal 0.91865 0.309017 0.246152
    outer loop
      vertex 11.2203 56.0147 32.2243
      vertex 19.8548 56.0147 0
      vertex 19.6353 56.6673 0
    endloop
  endfacet
  facet normal 0.91865 0.309017 0.246152
    outer loop
      vertex 11.0155 56.6673 32.1694
      vertex 11.2203 56.0147 32.2243
      vertex 19.6353 56.6673 0
    endloop
  endfacet
  facet normal 0.960634 0.104528 0.257401
    outer loop
      vertex 11.0155 56.6673 32.1694
      vertex 19.6353 56.6673 0
      vertex 19.561 57.3497 0
    endloop
  endfacet
  facet normal 0.960634 0.104528 0.257401
    outer loop
      vertex 10.9462 57.3497 32.1508
      vertex 11.0155 56.6673 32.1694
      vertex 19.561 57.3497 0
    endloop
  endfacet
  facet normal 0.960634 -0.104528 0.257401
    outer loop
      vertex 19.561 57.3497 0
      vertex 19.6353 58.0321 0
      vertex 11.0155 58.0321 32.1694
    endloop
  endfacet
  facet normal 0.960634 -0.104528 0.257401
    outer loop
      vertex 10.9462 57.3497 32.1508
      vertex 19.561 57.3497 0
      vertex 11.0155 58.0321 32.1694
    endloop
  endfacet
  facet normal 0.91865 -0.309017 0.246152
    outer loop
      vertex 19.6353 58.0321 0
      vertex 19.8548 58.6847 0
      vertex 11.2203 58.6847 32.2243
    endloop
  endfacet
  facet normal 0.91865 -0.309017 0.246152
    outer loop
      vertex 11.0155 58.0321 32.1694
      vertex 19.6353 58.0321 0
      vertex 11.2203 58.6847 32.2243
    endloop
  endfacet
  facet normal 0.836516 -0.5 0.224144
    outer loop
      vertex 19.8548 58.6847 0
      vertex 20.21 59.2789 0
      vertex 11.5517 59.2789 32.3131
    endloop
  endfacet
  facet normal 0.836516 -0.5 0.224144
    outer loop
      vertex 11.2203 58.6847 32.2243
      vertex 19.8548 58.6847 0
      vertex 11.5517 59.2789 32.3131
    endloop
  endfacet
  facet normal 0.717823 -0.669131 0.19234
    outer loop
      vertex 20.21 59.2789 0
      vertex 20.6853 59.7889 0
      vertex 11.9952 59.7889 32.4319
    endloop
  endfacet
  facet normal 0.717823 -0.669131 0.19234
    outer loop
      vertex 11.5517 59.2789 32.3131
      vertex 20.21 59.2789 0
      vertex 11.9952 59.7889 32.4319
    endloop
  endfacet
  facet normal 0.567757 -0.809017 0.15213
    outer loop
      vertex 20.6853 59.7889 0
      vertex 21.26 60.1922 0
      vertex 12.5314 60.1922 32.5756
    endloop
  endfacet
  facet normal 0.567757 -0.809017 0.15213
    outer loop
      vertex 11.9952 59.7889 32.4319
      vertex 20.6853 59.7889 0
      vertex 12.5314 60.1922 32.5756
    endloop
  endfacet
  facet normal 0.392878 -0.913545 0.105271
    outer loop
      vertex 21.26 60.1922 0
      vertex 21.909 60.4713 0
      vertex 13.1369 60.4713 32.7378
    endloop
  endfacet
  facet normal 0.392878 -0.913545 0.105271
    outer loop
      vertex 12.5314 60.1922 32.5756
      vertex 21.26 60.1922 0
      vertex 13.1369 60.4713 32.7378
    endloop
  endfacet
  facet normal 0.200827 -0.978148 0.0538116
    outer loop
      vertex 21.909 60.4713 0
      vertex 22.6039 60.6139 0
      vertex 13.7852 60.6139 32.9115
    endloop
  endfacet
  facet normal 0.200827 -0.978148 0.0538116
    outer loop
      vertex 13.1369 60.4713 32.7378
      vertex 21.909 60.4713 0
      vertex 13.7852 60.6139 32.9115
    endloop
  endfacet
  facet normal 0 -1 0
    outer loop
      vertex 22.6039 60.6139 0
      vertex 23.3142 60.6139 0
      vertex 14.448 60.6139 33.0891
    endloop
  endfacet
  facet normal 0 -1 0
    outer loop
      vertex 13.7852 60.6139 32.9115
      vertex 22.6039 60.6139 0
      vertex 14.448 60.6139 33.0891
    endloop
  endfacet
  facet normal -0.200827 -0.978148 -0.0538116
    outer loop
      vertex 23.3142 60.6139 0
      vertex 24.0091 60.4713 0
      vertex 15.0963 60.4713 33.2628
    endloop
  endfacet
  facet normal -0.200827 -0.978148 -0.0538116
    outer loop
      vertex 14.448 60.6139 33.0891
      vertex 23.3142 60.6139 0
      vertex 15.0963 60.4713 33.2628
    endloop
  endfacet
  facet normal -0.392878 -0.913545 -0.105271
    outer loop
      vertex 24.0091 60.4713 0
      vertex 24.6581 60.1922 0
      vertex 15.7018 60.1922 33.4251
    endloop
  endfacet
  facet normal -0.392878 -0.913545 -0.105271
    outer loop
      vertex 15.0963 60.4713 33.2628
      vertex 24.0091 60.4713 0
      vertex 15.7018 60.1922 33.4251
    endloop
  endfacet
  facet normal -0.567757 -0.809017 -0.15213
    outer loop
      vertex 24.6581 60.1922 0
      vertex 25.2328 59.7889 0
      vertex 16.2381 59.7889 33.5688
    endloop
  endfacet
  facet normal -0.567757 -0.809017 -0.15213
    outer loop
      vertex 15.7018 60.1922 33.4251
      vertex 24.6581 60.1922 0
      vertex 16.2381 59.7889 33.5688
    endloop
  endfacet
  facet normal -0.717823 -0.669131 -0.19234
    outer loop
      vertex 25.7081 59.2789 0
      vertex 16.6815 59.2789 33.6876
      vertex 25.2328 59.7889 0
    endloop
  endfacet
  facet normal -0.717823 -0.669131 -0.19234
    outer loop
      vertex 25.2328 59.7889 0
      vertex 16.6815 59.2789 33.6876
      vertex 16.2381 59.7889 33.5688
    endloop
  endfacet
  facet normal -0.836516 -0.5 -0.224144
    outer loop
      vertex 26.0633 58.6847 0
      vertex 17.0129 58.6847 33.7764
      vertex 25.7081 59.2789 0
    endloop
  endfacet
  facet normal -0.836516 -0.5 -0.224144
    outer loop
      vertex 25.7081 59.2789 0
      vertex 17.0129 58.6847 33.7764
      vertex 16.6815 59.2789 33.6876
    endloop
  endfacet
  facet normal -0.91865 -0.309017 -0.246152
    outer loop
      vertex 26.2828 58.0321 0
      vertex 17.2178 58.0321 33.8313
      vertex 26.0633 58.6847 0
    endloop
  endfacet
  facet normal -0.91865 -0.309017 -0.246152
    outer loop
      vertex 26.0633 58.6847 0
      vertex 17.2178 58.0321 33.8313
      vertex 17.0129 58.6847 33.7764
    endloop
  endfacet
  facet normal -0.960634 -0.104528 -0.257401
    outer loop
      vertex 26.3571 57.3497 0
      vertex 17.287 57.3497 33.8498
      vertex 26.2828 58.0321 0
    endloop
  endfacet
  facet normal -0.960634 -0.104528 -0.257401
    outer loop
      vertex 26.2828 58.0321 0
      vertex 17.287 57.3497 33.8498
      vertex 17.2178 58.0321 33.8313
    endloop
  endfacet
  facet normal -0.960634 0.104528 -0.257401
    outer loop
      vertex 26.3571 57.3497 0
      vertex 26.2828 56.6673 0
      vertex 17.287 57.3497 33.8498
    endloop
  endfacet
  facet normal -0.960634 0.104528 -0.257401
    outer loop
      vertex 17.287 57.3497 33.8498
      vertex 26.2828 56.6673 0
      vertex 17.2178 56.6673 33.8313
    endloop
  endfacet
  facet normal -0.91865 0.309017 -0.246152
    outer loop
      vertex 26.2828 56.6673 0
      vertex 26.0633 56.0147 0
      vertex 17.2178 56.6673 33.8313
    endloop
  endfacet
  facet normal -0.91865 0.309017 -0.246152
    outer loop
      vertex 17.2178 56.6673 33.8313
      vertex 26.0633 56.0147 0
      vertex 17.0129 56.0147 33.7764
    endloop
  endfacet
  facet normal -0.836516 0.5 -0.224144
    outer loop
      vertex 26.0633 56.0147 0
      vertex 25.7081 55.4204 0
      vertex 17.0129 56.0147 33.7764
    endloop
  endfacet
  facet normal -0.836516 0.5 -0.224144
    outer loop
      vertex 17.0129 56.0147 33.7764
      vertex 25.7081 55.4204 0
      vertex 16.6815 55.4204 33.6876
    endloop
  endfacet
  facet normal -0.717823 0.669131 -0.19234
    outer loop
      vertex 25.7081 55.4204 0
      vertex 25.2328 54.9105 0
      vertex 16.6815 55.4204 33.6876
    endloop
  endfacet
  facet normal -0.717823 0.669131 -0.19234
    outer loop
      vertex 16.6815 55.4204 33.6876
      vertex 25.2328 54.9105 0
      vertex 16.2381 54.9105 33.5688
    endloop
  endfacet
  facet normal -0.567757 0.809017 -0.15213
    outer loop
      vertex 25.2328 54.9105 0
      vertex 24.6581 54.5072 0
      vertex 16.2381 54.9105 33.5688
    endloop
  endfacet
  facet normal -0.567757 0.809017 -0.15213
    outer loop
      vertex 16.2381 54.9105 33.5688
      vertex 24.6581 54.5072 0
      vertex 15.7018 54.5072 33.4251
    endloop
  endfacet
  facet normal -0.392878 0.913545 -0.105271
    outer loop
      vertex 24.6581 54.5072 0
      vertex 24.0091 54.2281 0
      vertex 15.7018 54.5072 33.4251
    endloop
  endfacet
  facet normal -0.392878 0.913545 -0.105271
    outer loop
      vertex 15.7018 54.5072 33.4251
      vertex 24.0091 54.2281 0
      vertex 15.0963 54.2281 33.2628
    endloop
  endfacet
  facet normal -0.200827 0.978148 -0.0538116
    outer loop
      vertex 24.0091 54.2281 0
      vertex 23.3142 54.0854 0
      vertex 15.0963 54.2281 33.2628
    endloop
  endfacet
  facet normal -0.200827 0.978148 -0.0538116
    outer loop
      vertex 15.0963 54.2281 33.2628
      vertex 23.3142 54.0854 0
      vertex 14.448 54.0854 33.0891
    endloop
  endfacet
  facet normal 0 1 0
    outer loop
      vertex 23.3142 54.0854 0
      vertex 22.6039 54.0854 0
      vertex 14.448 54.0854 33.0891
    endloop
  endfacet
  facet normal 0 1 0
    outer loop
      vertex 14.448 54.0854 33.0891
      vertex 22.6039 54.0854 0
      vertex 13.7852 54.0854 32.9115
    endloop
  endfacet
  facet normal 0.200827 0.978148 0.0538116
    outer loop
      vertex 22.6039 54.0854 0
      vertex 21.909 54.2281 0
      vertex 13.7852 54.0854 32.9115
    endloop
  endfacet
  facet normal 0.200827 0.978148 0.0538116
    outer loop
      vertex 13.7852 54.0854 32.9115
      vertex 21.909 54.2281 0
      vertex 13.1369 54.2281 32.7378
    endloop
  endfacet
  facet normal 0.392878 0.913545 0.105271
    outer loop
      vertex 21.909 54.2281 0
      vertex 21.26 54.5072 0
      vertex 13.1369 54.2281 32.7378
    endloop
  endfacet
  facet normal 0.392878 0.913545 0.105271
    outer loop
      vertex 13.1369 54.2281 32.7378
      vertex 21.26 54.5072 0
      vertex 12.5314 54.5072 32.5756
    endloop
  endfacet
  facet normal 0.567757 0.809017 0.15213
    outer loop
      vertex 21.26 54.5072 0
      vertex 20.6853 54.9105 0
      vertex 12.5314 54.5072 32.5756
    endloop
  endfacet
  facet normal 0.567757 0.809017 0.15213
    outer loop
      vertex 12.5314 54.5072 32.5756
      vertex 20.6853 54.9105 0
      vertex 11.9952 54.9105 32.4319
    endloop
  endfacet
  facet normal 0.717823 0.669131 0.19234
    outer loop
      vertex 11.9952 54.9105 32.4319
      vertex 20.6853 54.9105 0
      vertex 20.21 55.4204 0
    endloop
  endfacet
  facet normal 0.717823 0.669131 0.19234
    outer loop
      vertex 11.5517 55.4204 32.3131
      vertex 11.9952 54.9105 32.4319
      vertex 20.21 55.4204 0
    endloop
  endfacet
  facet normal 0.836516 0.5 0.224144
    outer loop
      vertex 11.5517 55.4204 32.3131
      vertex 20.21 55.4204 0
      vertex 19.8548 56.0147 0
    endloop
  endfacet
  facet normal 0.836516 0.5 0.224144
    outer loop
      vertex 11.2203 56.0147 32.2243
      vertex 11.5517 55.4204 32.3131
      vertex 19.8548 56.0147 0
    endloop
  endfacet
  facet normal 0.91865 0.309017 0.246152
    outer loop
      vertex 62.0635 54.1943 45.8477
      vertex 74.3483 54.1943 0
      vertex 74.1288 54.8469 0
    endloop
  endfacet
  facet normal 0.91865 0.309017 0.246152
    outer loop
      vertex 61.8587 54.8469 45.7928
      vertex 62.0635 54.1943 45.8477
      vertex 74.1288 54.8469 0
    endloop
  endfacet
  facet normal 0.960634 0.104528 0.257401
    outer loop
      vertex 61.8587 54.8469 45.7928
      vertex 74.1288 54.8469 0
      vertex 74.0545 55.5293 0
    endloop
  endfacet
  facet normal 0.960634 0.104528 0.257401
    outer loop
      vertex 61.7894 55.5293 45.7742
      vertex 61.8587 54.8469 45.7928
      vertex 74.0545 55.5293 0
    endloop
  endfacet
  facet normal 0.960634 -0.104528 0.257401
    outer loop
      vertex 74.0545 55.5293 0
      vertex 74.1288 56.2118 0
      vertex 61.8587 56.2118 45.7928
    endloop
  endfacet
  facet normal 0.960634 -0.104528 0.257401
    outer loop
      vertex 61.7894 55.5293 45.7742
      vertex 74.0545 55.5293 0
      vertex 61.8587 56.2118 45.7928
    endloop
  endfacet
  facet normal 0.91865 -0.309017 0.246152
    outer loop
      vertex 74.1288 56.2118 0
      vertex 74.3483 56.8643 0
      vertex 62.0635 56.8643 45.8477
    endloop
  endfacet
  facet normal 0.91865 -0.309017 0.246152
    outer loop
      vertex 61.8587 56.2118 45.7928
      vertex 74.1288 56.2118 0
      vertex 62.0635 56.8643 45.8477
    endloop
  endfacet
  facet normal 0.836516 -0.5 0.224144
    outer loop
      vertex 74.3483 56.8643 0
      vertex 74.7035 57.4586 0
      vertex 62.3949 57.4586 45.9365
    endloop
  endfacet
  facet normal 0.836516 -0.5 0.224144
    outer loop
      vertex 62.0635 56.8643 45.8477
      vertex 74.3483 56.8643 0
      vertex 62.3949 57.4586 45.9365
    endloop
  endfacet
  facet normal 0.717823 -0.669131 0.19234
    outer loop
      vertex 74.7035 57.4586 0
      vertex 75.1788 57.9685 0
      vertex 62.8384 57.9685 46.0553
    endloop
  endfacet
  facet normal 0.717823 -0.669131 0.19234
    outer loop
      vertex 62.3949 57.4586 45.9365
      vertex 74.7035 57.4586 0
      vertex 62.8384 57.9685 46.0553
    endloop
  endfacet
  facet normal 0.567757 -0.809017 0.15213
    outer loop
      vertex 75.1788 57.9685 0
      vertex 75.7536 58.3718 0
      vertex 63.3746 58.3718 46.199
    endloop
  endfacet
  facet normal 0.567757 -0.809017 0.15213
    outer loop
      vertex 62.8384 57.9685 46.0553
      vertex 75.1788 57.9685 0
      vertex 63.3746 58.3718 46.199
    endloop
  endfacet
  facet normal 0.392878 -0.913545 0.105271
    outer loop
      vertex 75.7536 58.3718 0
      vertex 76.4025 58.6509 0
      vertex 63.9801 58.6509 46.3612
    endloop
  endfacet
  facet normal 0.392878 -0.913545 0.105271
    outer loop
      vertex 63.3746 58.3718 46.199
      vertex 75.7536 58.3718 0
      vertex 63.9801 58.6509 46.3612
    endloop
  endfacet
  facet normal 0.200827 -0.978148 0.0538116
    outer loop
      vertex 76.4025 58.6509 0
      vertex 77.0974 58.7936 0
      vertex 64.6284 58.7936 46.5349
    endloop
  endfacet
  facet normal 0.200827 -0.978148 0.0538116
    outer loop
      vertex 63.9801 58.6509 46.3612
      vertex 76.4025 58.6509 0
      vertex 64.6284 58.7936 46.5349
    endloop
  endfacet
  facet normal 0 -1 0
    outer loop
      vertex 77.0974 58.7936 0
      vertex 77.8078 58.7936 0
      vertex 65.2912 58.7936 46.7125
    endloop
  endfacet
  facet normal 0 -1 0
    outer loop
      vertex 64.6284 58.7936 46.5349
      vertex 77.0974 58.7936 0
      vertex 65.2912 58.7936 46.7125
    endloop
  endfacet
  facet normal -0.200827 -0.978148 -0.0538116
    outer loop
      vertex 77.8078 58.7936 0
      vertex 78.5026 58.6509 0
      vertex 65.9395 58.6509 46.8862
    endloop
  endfacet
  facet normal -0.200827 -0.978148 -0.0538116
    outer loop
      vertex 65.2912 58.7936 46.7125
      vertex 77.8078 58.7936 0
      vertex 65.9395 58.6509 46.8862
    endloop
  endfacet
  facet normal -0.392878 -0.913545 -0.105271
    outer loop
      vertex 78.5026 58.6509 0
      vertex 79.1516 58.3718 0
      vertex 66.545 58.3718 47.0485
    endloop
  endfacet
  facet normal -0.392878 -0.913545 -0.105271
    outer loop
      vertex 65.9395 58.6509 46.8862
      vertex 78.5026 58.6509 0
      vertex 66.545 58.3718 47.0485
    endloop
  endfacet
  facet normal -0.567757 -0.809017 -0.15213
    outer loop
      vertex 79.1516 58.3718 0
      vertex 79.7263 57.9685 0
      vertex 67.0812 57.9685 47.1921
    endloop
  endfacet
  facet normal -0.567757 -0.809017 -0.15213
    outer loop
      vertex 66.545 58.3718 47.0485
      vertex 79.1516 58.3718 0
      vertex 67.0812 57.9685 47.1921
    endloop
  endfacet
  facet normal -0.717823 -0.669131 -0.19234
    outer loop
      vertex 80.2016 57.4586 0
      vertex 67.5247 57.4586 47.311
      vertex 79.7263 57.9685 0
    endloop
  endfacet
  facet normal -0.717823 -0.669131 -0.19234
    outer loop
      vertex 79.7263 57.9685 0
      vertex 67.5247 57.4586 47.311
      vertex 67.0812 57.9685 47.1921
    endloop
  endfacet
  facet normal -0.836516 -0.5 -0.224144
    outer loop
      vertex 80.5568 56.8643 0
      vertex 67.8561 56.8643 47.3998
      vertex 80.2016 57.4586 0
    endloop
  endfacet
  facet normal -0.836516 -0.5 -0.224144
    outer loop
      vertex 80.2016 57.4586 0
      vertex 67.8561 56.8643 47.3998
      vertex 67.5247 57.4586 47.311
    endloop
  endfacet
  facet normal -0.91865 -0.309017 -0.246152
    outer loop
      vertex 80.7763 56.2118 0
      vertex 68.0609 56.2118 47.4547
      vertex 80.5568 56.8643 0
    endloop
  endfacet
  facet normal -0.91865 -0.309017 -0.246152
    outer loop
      vertex 80.5568 56.8643 0
      vertex 68.0609 56.2118 47.4547
      vertex 67.8561 56.8643 47.3998
    endloop
  endfacet
  facet normal -0.960634 -0.104528 -0.257401
    outer loop
      vertex 80.8506 55.5293 0
      vertex 68.1302 55.5293 47.4732
      vertex 80.7763 56.2118 0
    endloop
  endfacet
  facet normal -0.960634 -0.104528 -0.257401
    outer loop
      vertex 80.7763 56.2118 0
      vertex 68.1302 55.5293 47.4732
      vertex 68.0609 56.2118 47.4547
    endloop
  endfacet
  facet normal -0.960634 0.104528 -0.257401
    outer loop
      vertex 80.8506 55.5293 0
      vertex 80.7763 54.8469 0
      vertex 68.1302 55.5293 47.4732
    endloop
  endfacet
  facet normal -0.960634 0.104528 -0.257401
    outer loop
      vertex 68.1302 55.5293 47.4732
      vertex 80.7763 54.8469 0
      vertex 68.0609 54.8469 47.4547
    endloop
  endfacet
  facet normal -0.91865 0.309017 -0.246152
    outer loop
      vertex 80.7763 54.8469 0
      vertex 80.5568 54.1943 0
      vertex 68.0609 54.8469 47.4547
    endloop
  endfacet
  facet normal -0.91865 0.309017 -0.246152
    outer loop
      vertex 68.0609 54.8469 47.4547
      vertex 80.5568 54.1943 0
      vertex 67.8561 54.1943 47.3998
    endloop
  endfacet
  facet normal -0.836516 0.5 -0.224144
    outer loop
      vertex 80.5568 54.1943 0
      vertex 80.2016 53.6001 0
      vertex 67.8561 54.1943 47.3998
    endloop
  endfacet
  facet normal -0.836516 0.5 -0.224144
    outer loop
      vertex 67.8561 54.1943 47.3998
      vertex 80.2016 53.6001 0
      vertex 67.5247 53.6001 47.311
    endloop
  endfacet
  facet normal -0.717823 0.669131 -0.19234
    outer loop
      vertex 80.2016 53.6001 0
      vertex 79.7263 53.0902 0
      vertex 67.5247 53.6001 47.311
    endloop
  endfacet
  facet normal -0.717823 0.669131 -0.19234
    outer loop
      vertex 67.5247 53.6001 47.311
      vertex 79.7263 53.0902 0
      vertex 67.0812 53.0902 47.1921
    endloop
  endfacet
  facet normal -0.567757 0.809017 -0.15213
    outer loop
      vertex 79.7263 53.0902 0
      vertex 79.1516 52.6868 0
      vertex 67.0812 53.0902 47.1921
    endloop
  endfacet
  facet normal -0.567757 0.809017 -0.15213
    outer loop
      vertex 67.0812 53.0902 47.1921
      vertex 79.1516 52.6868 0
      vertex 66.545 52.6868 47.0485
    endloop
  endfacet
  facet normal -0.392878 0.913545 -0.105271
    outer loop
      vertex 79.1516 52.6868 0
      vertex 78.5026 52.4077 0
      vertex 66.545 52.6868 47.0485
    endloop
  endfacet
  facet normal -0.392878 0.913545 -0.105271
    outer loop
      vertex 66.545 52.6868 47.0485
      vertex 78.5026 52.4077 0
      vertex 65.9395 52.4077 46.8862
    endloop
  endfacet
  facet normal -0.200827 0.978148 -0.0538116
    outer loop
      vertex 78.5026 52.4077 0
      vertex 77.8078 52.2651 0
      vertex 65.9395 52.4077 46.8862
    endloop
  endfacet
  facet normal -0.200827 0.978148 -0.0538116
    outer loop
      vertex 65.9395 52.4077 46.8862
      vertex 77.8078 52.2651 0
      vertex 65.2912 52.2651 46.7125
    endloop
  endfacet
  facet normal 0 1 0
    outer loop
      vertex 77.8078 52.2651 0
      vertex 77.0974 52.2651 0
      vertex 65.2912 52.2651 46.7125
    endloop
  endfacet
  facet normal 0 1 0
    outer loop
      vertex 65.2912 52.2651 46.7125
      vertex 77.0974 52.2651 0
      vertex 64.6284 52.2651 46.5349
    endloop
  endfacet
  facet normal 0.200827 0.978148 0.0538116
    outer loop
      vertex 77.0974 52.2651 0
      vertex 76.4025 52.4077 0
      vertex 64.6284 52.2651 46.5349
    endloop
  endfacet
  facet normal 0.200827 0.978148 0.0538116
    outer loop
      vertex 64.6284 52.2651 46.5349
      vertex 76.4025 52.4077 0
      vertex 63.9801 52.4077 46.3612
    endloop
  endfacet
  facet normal 0.392878 0.913545 0.105271
    outer loop
      vertex 76.4025 52.4077 0
      vertex 75.7536 52.6868 0
      vertex 63.9801 52.4077 46.3612
    endloop
  endfacet
  facet normal 0.392878 0.913545 0.105271
    outer loop
      vertex 63.9801 52.4077 46.3612
      vertex 75.7536 52.6868 0
      vertex 63.3746 52.6868 46.199
    endloop
  endfacet
  facet normal 0.567757 0.809017 0.15213
    outer loop
      vertex 75.7536 52.6868 0
      vertex 75.1788 53.0902 0
      vertex 63.3746 52.6868 46.199
    endloop
  endfacet
  facet normal 0.567757 0.809017 0.15213
    outer loop
      vertex 63.3746 52.6868 46.199
      vertex 75.1788 53.0902 0
      vertex 62.8384 53.0902 46.0553
    endloop
  endfacet
  facet normal 0.717823 0.669131 0.19234
    outer loop
      vertex 62.8384 53.0902 46.0553
      vertex 75.1788 53.0902 0
      vertex 74.7035 53.6001 0
    endloop
  endfacet
  facet normal 0.717823 0.669131 0.19234
    outer loop
      vertex 62.3949 53.6001 45.9365
      vertex 62.8384 53.0902 46.0553
      vertex 74.7035 53.6001 0
    endloop
  endfacet
  facet normal 0.836516 0.5 0.224144
    outer loop
      vertex 62.3949 53.6001 45.9365
      vertex 74.7035 53.6001 0
      vertex 74.3483 54.1943 0
    endloop
  endfacet
  facet normal 0.836516 0.5 0.224144
    outer loop
      vertex 62.0635 54.1943 45.8477
      vertex 62.3949 53.6001 45.9365
      vertex 74.3483 54.1943 0
    endloop
  endfacet
endsolid OpenSCAD_Model
