solid OpenSCAD_Model
  facet normal 0 -1 0
    outer loop
      vertex -7.05556 -62.1827 27.3273
      vertex -7.05556 -62.1827 0
      vertex 76.2839 -62.1827 0
    endloop
  endfacet
  facet normal 0 -1 0
    outer loop
      vertex 63.8694 -62.1827 46.3315
      vertex -7.05556 -62.1827 27.3273
      vertex 76.2839 -62.1827 0
    endloop
  endfacet
  facet normal 0 0 -1
    outer loop
      vertex 22.6039 54.5855 0
      vertex 66.3161 52.1555 0
      vertex -7.05556 52.1555 0
    endloop
  endfacet
  facet normal 0 0 -1
    outer loop
      vertex 21.909 60.9714 0
      vertex -7.05556 62.1827 0
      vertex 22.6039 61.114 0
    endloop
  endfacet
  facet normal 0 0 -1
    outer loop
      vertex 74.7035 57.9587 0
      vertex 66.3161 52.1555 0
      vertex 76.2839 62.1827 0
    endloop
  endfacet
  facet normal 0 0 -1
    outer loop
      vertex 75.7536 58.8719 0
      vertex 76.2839 62.1428 0
      vertex 76.4025 59.151 0
    endloop
  endfacet
  facet normal 0 0 -1
    outer loop
      vertex 76.4025 59.151 0
      vertex 76.2839 62.1428 0
      vertex 77.0719 62.1428 0
    endloop
  endfacet
  facet normal 0 0 -1
    outer loop
      vertex 77.8078 59.2937 0
      vertex 77.0719 62.1428 0
      vertex 78.6136 61.8263 0
    endloop
  endfacet
  facet normal 0 0 -1
    outer loop
      vertex 79.1516 58.8719 0
      vertex 78.6136 61.8263 0
      vertex 80.0534 61.2071 0
    endloop
  endfacet
  facet normal 0 0 -1
    outer loop
      vertex 80.2016 57.9587 0
      vertex 80.0534 61.2071 0
      vertex 81.3285 60.3123 0
    endloop
  endfacet
  facet normal 0 0 -1
    outer loop
      vertex 80.7763 55.347 0
      vertex 81.3285 60.3123 0
      vertex 82.3831 59.1809 0
    endloop
  endfacet
  facet normal 0 0 -1
    outer loop
      vertex 66.3161 -52.1555 0
      vertex 82.3831 59.1809 0
      vertex 83.1711 57.8625 0
    endloop
  endfacet
  facet normal 0 0 -1
    outer loop
      vertex 66.3161 -52.1555 0
      vertex 83.1711 57.8625 0
      vertex 83.6582 56.4146 0
    endloop
  endfacet
  facet normal 0 0 -1
    outer loop
      vertex 66.3161 -52.1555 0
      vertex 83.6582 56.4146 0
      vertex 83.8229 54.9005 0
    endloop
  endfacet
  facet normal 0 0 -1
    outer loop
      vertex 66.3161 -52.1555 0
      vertex 83.8229 54.9005 0
      vertex 83.8229 -54.9005 0
    endloop
  endfacet
  facet normal 0 0 -1
    outer loop
      vertex 66.3161 -52.1555 0
      vertex 83.8229 -54.9005 0
      vertex -7.05556 -52.1555 0
    endloop
  endfacet
  facet normal 0 0 -1
    outer loop
      vertex 83.8229 -54.9005 0
      vertex 83.6582 -56.4146 0
      vertex -7.05556 -52.1555 0
    endloop
  endfacet
  facet normal 0 0 -1
    outer loop
      vertex 83.6582 -56.4146 0
      vertex 83.1711 -57.8625 0
      vertex -7.05556 -52.1555 0
    endloop
  endfacet
  facet normal 0 0 -1
    outer loop
      vertex 83.1711 -57.8625 0
      vertex 82.3831 -59.1809 0
      vertex -7.05556 -52.1555 0
    endloop
  endfacet
  facet normal 0 0 -1
    outer loop
      vertex 82.3831 -59.1809 0
      vertex 81.3285 -60.3123 0
      vertex -7.05556 -52.1555 0
    endloop
  endfacet
  facet normal 0 0 -1
    outer loop
      vertex 81.3285 -60.3123 0
      vertex 80.0534 -61.2071 0
      vertex -7.05556 -52.1555 0
    endloop
  endfacet
  facet normal 0 0 -1
    outer loop
      vertex 80.0534 -61.2071 0
      vertex 78.6136 -61.8263 0
      vertex -7.05556 -52.1555 0
    endloop
  endfacet
  facet normal 0 0 -1
    outer loop
      vertex 78.6136 -61.8263 0
      vertex 77.0719 -62.1428 0
      vertex -7.05556 -52.1555 0
    endloop
  endfacet
  facet normal 0 0 -1
    outer loop
      vertex 77.0719 -62.1428 0
      vertex 76.2839 -62.1428 0
      vertex -7.05556 -52.1555 0
    endloop
  endfacet
  facet normal 0 0 -1
    outer loop
      vertex 76.2839 -62.1428 0
      vertex 76.2839 -62.1827 0
      vertex -7.05556 -52.1555 0
    endloop
  endfacet
  facet normal 0 0 -1
    outer loop
      vertex 76.2839 -62.1827 0
      vertex -7.05556 -62.1827 0
      vertex -7.05556 -52.1555 0
    endloop
  endfacet
  facet normal 0 0 -1
    outer loop
      vertex 26.3571 57.8498 0
      vertex 66.3161 52.1555 0
      vertex 26.2828 57.1674 0
    endloop
  endfacet
  facet normal 0 0 -1
    outer loop
      vertex -7.05556 62.1827 0
      vertex 19.6353 57.1674 0
      vertex -7.05556 52.1555 0
    endloop
  endfacet
  facet normal 0 0 -1
    outer loop
      vertex 19.561 57.8498 0
      vertex -7.05556 62.1827 0
      vertex 19.6353 58.5322 0
    endloop
  endfacet
  facet normal 0 0 -1
    outer loop
      vertex 19.6353 57.1674 0
      vertex 19.8548 56.5148 0
      vertex -7.05556 52.1555 0
    endloop
  endfacet
  facet normal 0 0 -1
    outer loop
      vertex 26.0633 56.5148 0
      vertex 66.3161 52.1555 0
      vertex 25.7081 55.9205 0
    endloop
  endfacet
  facet normal 0 0 -1
    outer loop
      vertex 19.8548 56.5148 0
      vertex 20.21 55.9205 0
      vertex -7.05556 52.1555 0
    endloop
  endfacet
  facet normal 0 0 -1
    outer loop
      vertex 25.7081 55.9205 0
      vertex 66.3161 52.1555 0
      vertex 25.2328 55.4106 0
    endloop
  endfacet
  facet normal 0 0 -1
    outer loop
      vertex 20.21 55.9205 0
      vertex 20.6853 55.4106 0
      vertex -7.05556 52.1555 0
    endloop
  endfacet
  facet normal 0 0 -1
    outer loop
      vertex 25.2328 55.4106 0
      vertex 66.3161 52.1555 0
      vertex 24.6581 55.0073 0
    endloop
  endfacet
  facet normal 0 0 -1
    outer loop
      vertex 20.6853 55.4106 0
      vertex 21.26 55.0073 0
      vertex -7.05556 52.1555 0
    endloop
  endfacet
  facet normal 0 0 -1
    outer loop
      vertex 24.6581 55.0073 0
      vertex 66.3161 52.1555 0
      vertex 24.0091 54.7282 0
    endloop
  endfacet
  facet normal 0 0 -1
    outer loop
      vertex 21.26 55.0073 0
      vertex 21.909 54.7282 0
      vertex -7.05556 52.1555 0
    endloop
  endfacet
  facet normal 0 0 -1
    outer loop
      vertex 23.3142 54.5855 0
      vertex 66.3161 52.1555 0
      vertex 22.6039 54.5855 0
    endloop
  endfacet
  facet normal 0 0 -1
    outer loop
      vertex 21.909 54.7282 0
      vertex 22.6039 54.5855 0
      vertex -7.05556 52.1555 0
    endloop
  endfacet
  facet normal 0 0 -1
    outer loop
      vertex 26.2828 57.1674 0
      vertex 66.3161 52.1555 0
      vertex 26.0633 56.5148 0
    endloop
  endfacet
  facet normal 0 0 -1
    outer loop
      vertex 24.0091 54.7282 0
      vertex 66.3161 52.1555 0
      vertex 23.3142 54.5855 0
    endloop
  endfacet
  facet normal 0 0 -1
    outer loop
      vertex 76.2839 62.1827 0
      vertex 66.3161 52.1555 0
      vertex 26.3571 57.8498 0
    endloop
  endfacet
  facet normal 0 0 -1
    outer loop
      vertex 76.2839 62.1827 0
      vertex 26.3571 57.8498 0
      vertex 26.2828 58.5322 0
    endloop
  endfacet
  facet normal 0 0 -1
    outer loop
      vertex 76.2839 62.1827 0
      vertex 26.2828 58.5322 0
      vertex 26.0633 59.1848 0
    endloop
  endfacet
  facet normal 0 0 -1
    outer loop
      vertex 76.2839 62.1827 0
      vertex 26.0633 59.1848 0
      vertex 25.7081 59.779 0
    endloop
  endfacet
  facet normal 0 0 -1
    outer loop
      vertex 76.2839 62.1827 0
      vertex 25.7081 59.779 0
      vertex 25.2328 60.289 0
    endloop
  endfacet
  facet normal 0 0 -1
    outer loop
      vertex 76.2839 62.1827 0
      vertex 25.2328 60.289 0
      vertex 24.6581 60.6923 0
    endloop
  endfacet
  facet normal 0 0 -1
    outer loop
      vertex 76.2839 62.1827 0
      vertex 24.6581 60.6923 0
      vertex 24.0091 60.9714 0
    endloop
  endfacet
  facet normal 0 0 -1
    outer loop
      vertex 76.2839 62.1827 0
      vertex 24.0091 60.9714 0
      vertex 23.3142 61.114 0
    endloop
  endfacet
  facet normal 0 0 -1
    outer loop
      vertex 76.2839 62.1827 0
      vertex 23.3142 61.114 0
      vertex -7.05556 62.1827 0
    endloop
  endfacet
  facet normal 0 0 -1
    outer loop
      vertex 23.3142 61.114 0
      vertex 22.6039 61.114 0
      vertex -7.05556 62.1827 0
    endloop
  endfacet
  facet normal 0 0 -1
    outer loop
      vertex 21.26 60.6923 0
      vertex -7.05556 62.1827 0
      vertex 21.909 60.9714 0
    endloop
  endfacet
  facet normal 0 0 -1
    outer loop
      vertex 20.6853 60.289 0
      vertex -7.05556 62.1827 0
      vertex 21.26 60.6923 0
    endloop
  endfacet
  facet normal 0 0 -1
    outer loop
      vertex 20.21 59.779 0
      vertex -7.05556 62.1827 0
      vertex 20.6853 60.289 0
    endloop
  endfacet
  facet normal 0 0 -1
    outer loop
      vertex 19.8548 59.1848 0
      vertex -7.05556 62.1827 0
      vertex 20.21 59.779 0
    endloop
  endfacet
  facet normal 0 0 -1
    outer loop
      vertex 19.6353 58.5322 0
      vertex -7.05556 62.1827 0
      vertex 19.8548 59.1848 0
    endloop
  endfacet
  facet normal 0 0 -1
    outer loop
      vertex 75.7536 53.1869 0
      vertex 66.3161 -52.1555 0
      vertex 75.1788 53.5903 0
    endloop
  endfacet
  facet normal 0 0 -1
    outer loop
      vertex 66.3161 -52.1555 0
      vertex 66.3161 52.1555 0
      vertex 74.1288 55.347 0
    endloop
  endfacet
  facet normal 0 0 -1
    outer loop
      vertex 66.3161 -52.1555 0
      vertex 74.1288 55.347 0
      vertex 74.3483 54.6944 0
    endloop
  endfacet
  facet normal 0 0 -1
    outer loop
      vertex 66.3161 -52.1555 0
      vertex 74.3483 54.6944 0
      vertex 74.7035 54.1002 0
    endloop
  endfacet
  facet normal 0 0 -1
    outer loop
      vertex 66.3161 -52.1555 0
      vertex 74.7035 54.1002 0
      vertex 75.1788 53.5903 0
    endloop
  endfacet
  facet normal 0 0 -1
    outer loop
      vertex 76.4025 52.9078 0
      vertex 66.3161 -52.1555 0
      vertex 75.7536 53.1869 0
    endloop
  endfacet
  facet normal 0 0 -1
    outer loop
      vertex 77.8078 52.7652 0
      vertex 66.3161 -52.1555 0
      vertex 77.0974 52.7652 0
    endloop
  endfacet
  facet normal 0 0 -1
    outer loop
      vertex 66.3161 -52.1555 0
      vertex 76.4025 52.9078 0
      vertex 77.0974 52.7652 0
    endloop
  endfacet
  facet normal 0 0 -1
    outer loop
      vertex 79.1516 53.1869 0
      vertex 66.3161 -52.1555 0
      vertex 78.5026 52.9078 0
    endloop
  endfacet
  facet normal 0 0 -1
    outer loop
      vertex 66.3161 -52.1555 0
      vertex 77.8078 52.7652 0
      vertex 78.5026 52.9078 0
    endloop
  endfacet
  facet normal 0 0 -1
    outer loop
      vertex 79.1516 58.8719 0
      vertex 80.0534 61.2071 0
      vertex 79.7263 58.4686 0
    endloop
  endfacet
  facet normal 0 0 -1
    outer loop
      vertex 66.3161 -52.1555 0
      vertex 79.1516 53.1869 0
      vertex 79.7263 53.5903 0
    endloop
  endfacet
  facet normal 0 0 -1
    outer loop
      vertex 66.3161 -52.1555 0
      vertex 79.7263 53.5903 0
      vertex 80.2016 54.1002 0
    endloop
  endfacet
  facet normal 0 0 -1
    outer loop
      vertex 66.3161 -52.1555 0
      vertex 80.2016 54.1002 0
      vertex 80.5568 54.6944 0
    endloop
  endfacet
  facet normal 0 0 -1
    outer loop
      vertex 80.8506 56.0294 0
      vertex 81.3285 60.3123 0
      vertex 80.7763 55.347 0
    endloop
  endfacet
  facet normal 0 0 -1
    outer loop
      vertex 66.3161 -52.1555 0
      vertex 80.7763 55.347 0
      vertex 82.3831 59.1809 0
    endloop
  endfacet
  facet normal 0 0 -1
    outer loop
      vertex 80.7763 56.7119 0
      vertex 81.3285 60.3123 0
      vertex 80.8506 56.0294 0
    endloop
  endfacet
  facet normal 0 0 -1
    outer loop
      vertex 80.5568 57.3644 0
      vertex 81.3285 60.3123 0
      vertex 80.7763 56.7119 0
    endloop
  endfacet
  facet normal 0 0 -1
    outer loop
      vertex 80.2016 57.9587 0
      vertex 81.3285 60.3123 0
      vertex 80.5568 57.3644 0
    endloop
  endfacet
  facet normal 0 0 -1
    outer loop
      vertex 79.7263 58.4686 0
      vertex 80.0534 61.2071 0
      vertex 80.2016 57.9587 0
    endloop
  endfacet
  facet normal 0 0 -1
    outer loop
      vertex 80.7763 55.347 0
      vertex 66.3161 -52.1555 0
      vertex 80.5568 54.6944 0
    endloop
  endfacet
  facet normal 0 0 -1
    outer loop
      vertex 78.5026 59.151 0
      vertex 78.6136 61.8263 0
      vertex 79.1516 58.8719 0
    endloop
  endfacet
  facet normal 0 0 -1
    outer loop
      vertex 77.8078 59.2937 0
      vertex 78.6136 61.8263 0
      vertex 78.5026 59.151 0
    endloop
  endfacet
  facet normal 0 0 -1
    outer loop
      vertex 77.0974 59.2937 0
      vertex 77.0719 62.1428 0
      vertex 77.8078 59.2937 0
    endloop
  endfacet
  facet normal 0 0 -1
    outer loop
      vertex 76.4025 59.151 0
      vertex 77.0719 62.1428 0
      vertex 77.0974 59.2937 0
    endloop
  endfacet
  facet normal 0 0 -1
    outer loop
      vertex 75.7536 58.8719 0
      vertex 76.2839 62.1827 0
      vertex 76.2839 62.1428 0
    endloop
  endfacet
  facet normal 0 0 -1
    outer loop
      vertex 75.1788 58.4686 0
      vertex 76.2839 62.1827 0
      vertex 75.7536 58.8719 0
    endloop
  endfacet
  facet normal 0 0 -1
    outer loop
      vertex 74.7035 57.9587 0
      vertex 76.2839 62.1827 0
      vertex 75.1788 58.4686 0
    endloop
  endfacet
  facet normal 0 0 -1
    outer loop
      vertex 74.3483 57.3644 0
      vertex 66.3161 52.1555 0
      vertex 74.7035 57.9587 0
    endloop
  endfacet
  facet normal 0 0 -1
    outer loop
      vertex 74.1288 56.7119 0
      vertex 66.3161 52.1555 0
      vertex 74.3483 57.3644 0
    endloop
  endfacet
  facet normal 0 0 -1
    outer loop
      vertex 74.0545 56.0294 0
      vertex 66.3161 52.1555 0
      vertex 74.1288 56.7119 0
    endloop
  endfacet
  facet normal 0 0 -1
    outer loop
      vertex 74.1288 55.347 0
      vertex 66.3161 52.1555 0
      vertex 74.0545 56.0294 0
    endloop
  endfacet
  facet normal 0 0 -1
    outer loop
      vertex 19.6353 57.1674 0
      vertex -7.05556 62.1827 0
      vertex 19.561 57.8498 0
    endloop
  endfacet
  facet normal -1 0 0
    outer loop
      vertex -7.05556 -52.1555 27.3273
      vertex -7.05556 -52.1555 0
      vertex -7.05556 -62.1827 27.3273
    endloop
  endfacet
  facet normal -1 0 0
    outer loop
      vertex -7.05556 -62.1827 27.3273
      vertex -7.05556 -52.1555 0
      vertex -7.05556 -62.1827 0
    endloop
  endfacet
  facet normal -0.258819 0 0.965926
    outer loop
      vertex -7.05556 -52.1555 27.3273
      vertex -7.05556 -62.1827 27.3273
      vertex 63.8694 -62.1827 46.3315
    endloop
  endfacet
  facet normal -0.258819 0 0.965926
    outer loop
      vertex 64.6046 -62.1428 46.5286
      vertex -7.05556 -52.1555 27.3273
      vertex 63.8694 -62.1428 46.3315
    endloop
  endfacet
  facet normal -0.258819 0 0.965926
    outer loop
      vertex 63.8694 -62.1428 46.3315
      vertex -7.05556 -52.1555 27.3273
      vertex 63.8694 -62.1827 46.3315
    endloop
  endfacet
  facet normal -0.258819 0 0.965926
    outer loop
      vertex 66.043 -61.8263 46.914
      vertex -7.05556 -52.1555 27.3273
      vertex 64.6046 -62.1428 46.5286
    endloop
  endfacet
  facet normal -0.258819 0 0.965926
    outer loop
      vertex 67.3864 -61.2071 47.2739
      vertex -7.05556 -52.1555 27.3273
      vertex 66.043 -61.8263 46.914
    endloop
  endfacet
  facet normal -0.258819 0 0.965926
    outer loop
      vertex 68.5761 -60.3123 47.5927
      vertex -7.05556 -52.1555 27.3273
      vertex 67.3864 -61.2071 47.2739
    endloop
  endfacet
  facet normal -0.258819 0 0.965926
    outer loop
      vertex 69.56 -59.1809 47.8563
      vertex -7.05556 -52.1555 27.3273
      vertex 68.5761 -60.3123 47.5927
    endloop
  endfacet
  facet normal -0.258819 0 0.965926
    outer loop
      vertex 70.2953 -57.8625 48.0534
      vertex -7.05556 -52.1555 27.3273
      vertex 69.56 -59.1809 47.8563
    endloop
  endfacet
  facet normal -0.258819 0 0.965926
    outer loop
      vertex 70.7497 -56.4146 48.1751
      vertex -7.05556 -52.1555 27.3273
      vertex 70.2953 -57.8625 48.0534
    endloop
  endfacet
  facet normal -0.258819 0 0.965926
    outer loop
      vertex 70.9034 -54.9005 48.2163
      vertex -7.05556 -52.1555 27.3273
      vertex 70.7497 -56.4146 48.1751
    endloop
  endfacet
  facet normal -0.258819 0 0.965926
    outer loop
      vertex 66.3161 -52.1555 46.9871
      vertex -7.05556 -52.1555 27.3273
      vertex 70.9034 -54.9005 48.2163
    endloop
  endfacet
  facet normal -0.258819 0 0.965926
    outer loop
      vertex 14.448 61.114 33.0891
      vertex 15.0963 60.9714 33.2628
      vertex 63.8694 62.1827 46.3315
    endloop
  endfacet
  facet normal -0.258819 0 0.965926
    outer loop
      vertex 16.6815 55.9205 33.6876
      vertex 16.2381 55.4106 33.5688
      vertex 63.8694 62.1827 46.3315
    endloop
  endfacet
  facet normal -0.258819 0 0.965926
    outer loop
      vertex 66.3161 52.1555 46.9871
      vertex 70.9034 54.9005 48.2163
      vertex 70.7497 56.4146 48.1751
    endloop
  endfacet
  facet normal -0.258819 0 0.965926
    outer loop
      vertex 14.448 54.5855 33.0891
      vertex 13.7852 54.5855 32.9115
      vertex -7.05556 52.1555 27.3273
    endloop
  endfacet
  facet normal -0.258819 0 0.965926
    outer loop
      vertex 70.2953 57.8625 48.0534
      vertex 66.3161 52.1555 46.9871
      vertex 70.7497 56.4146 48.1751
    endloop
  endfacet
  facet normal -0.258819 0 0.965926
    outer loop
      vertex 70.9034 54.9005 48.2163
      vertex 66.3161 -52.1555 46.9871
      vertex 70.9034 -54.9005 48.2163
    endloop
  endfacet
  facet normal -0.258819 0 0.965926
    outer loop
      vertex -7.05556 62.1827 27.3273
      vertex -7.05556 52.1555 27.3273
      vertex 11.0155 57.1674 32.1694
    endloop
  endfacet
  facet normal -0.258819 0 0.965926
    outer loop
      vertex 17.287 57.8498 33.8498
      vertex 17.2178 57.1674 33.8313
      vertex 63.8694 62.1827 46.3315
    endloop
  endfacet
  facet normal -0.258819 0 0.965926
    outer loop
      vertex -7.05556 62.1827 27.3273
      vertex 11.0155 57.1674 32.1694
      vertex 10.9462 57.8498 32.1508
    endloop
  endfacet
  facet normal -0.258819 0 0.965926
    outer loop
      vertex 17.2178 58.5322 33.8313
      vertex 17.287 57.8498 33.8498
      vertex 63.8694 62.1827 46.3315
    endloop
  endfacet
  facet normal -0.258819 0 0.965926
    outer loop
      vertex -7.05556 62.1827 27.3273
      vertex 10.9462 57.8498 32.1508
      vertex 11.0155 58.5322 32.1694
    endloop
  endfacet
  facet normal -0.258819 0 0.965926
    outer loop
      vertex 17.0129 59.1848 33.7764
      vertex 17.2178 58.5322 33.8313
      vertex 63.8694 62.1827 46.3315
    endloop
  endfacet
  facet normal -0.258819 0 0.965926
    outer loop
      vertex -7.05556 62.1827 27.3273
      vertex 11.0155 58.5322 32.1694
      vertex 11.2203 59.1848 32.2243
    endloop
  endfacet
  facet normal -0.258819 0 0.965926
    outer loop
      vertex 16.6815 59.779 33.6876
      vertex 17.0129 59.1848 33.7764
      vertex 63.8694 62.1827 46.3315
    endloop
  endfacet
  facet normal -0.258819 0 0.965926
    outer loop
      vertex -7.05556 62.1827 27.3273
      vertex 11.2203 59.1848 32.2243
      vertex 11.5517 59.779 32.3131
    endloop
  endfacet
  facet normal -0.258819 0 0.965926
    outer loop
      vertex 16.2381 60.289 33.5688
      vertex 16.6815 59.779 33.6876
      vertex 63.8694 62.1827 46.3315
    endloop
  endfacet
  facet normal -0.258819 0 0.965926
    outer loop
      vertex -7.05556 62.1827 27.3273
      vertex 11.5517 59.779 32.3131
      vertex 11.9952 60.289 32.4319
    endloop
  endfacet
  facet normal -0.258819 0 0.965926
    outer loop
      vertex 15.7018 60.6923 33.4251
      vertex 16.2381 60.289 33.5688
      vertex 63.8694 62.1827 46.3315
    endloop
  endfacet
  facet normal -0.258819 0 0.965926
    outer loop
      vertex -7.05556 62.1827 27.3273
      vertex 11.9952 60.289 32.4319
      vertex 12.5314 60.6923 32.5756
    endloop
  endfacet
  facet normal -0.258819 0 0.965926
    outer loop
      vertex 15.0963 60.9714 33.2628
      vertex 15.7018 60.6923 33.4251
      vertex 63.8694 62.1827 46.3315
    endloop
  endfacet
  facet normal -0.258819 0 0.965926
    outer loop
      vertex -7.05556 62.1827 27.3273
      vertex 12.5314 60.6923 32.5756
      vertex 13.1369 60.9714 32.7378
    endloop
  endfacet
  facet normal -0.258819 0 0.965926
    outer loop
      vertex -7.05556 62.1827 27.3273
      vertex 13.7852 61.114 32.9115
      vertex 63.8694 62.1827 46.3315
    endloop
  endfacet
  facet normal -0.258819 0 0.965926
    outer loop
      vertex -7.05556 62.1827 27.3273
      vertex 13.1369 60.9714 32.7378
      vertex 13.7852 61.114 32.9115
    endloop
  endfacet
  facet normal -0.258819 0 0.965926
    outer loop
      vertex 13.7852 61.114 32.9115
      vertex 14.448 61.114 33.0891
      vertex 63.8694 62.1827 46.3315
    endloop
  endfacet
  facet normal -0.258819 0 0.965926
    outer loop
      vertex 17.2178 57.1674 33.8313
      vertex 17.0129 56.5148 33.7764
      vertex 63.8694 62.1827 46.3315
    endloop
  endfacet
  facet normal -0.258819 0 0.965926
    outer loop
      vertex 17.0129 56.5148 33.7764
      vertex 16.6815 55.9205 33.6876
      vertex 63.8694 62.1827 46.3315
    endloop
  endfacet
  facet normal -0.258819 0 0.965926
    outer loop
      vertex 13.7852 54.5855 32.9115
      vertex 13.1369 54.7282 32.7378
      vertex -7.05556 52.1555 27.3273
    endloop
  endfacet
  facet normal -0.258819 0 0.965926
    outer loop
      vertex 13.1369 54.7282 32.7378
      vertex 12.5314 55.0073 32.5756
      vertex -7.05556 52.1555 27.3273
    endloop
  endfacet
  facet normal -0.258819 0 0.965926
    outer loop
      vertex 12.5314 55.0073 32.5756
      vertex 11.9952 55.4106 32.4319
      vertex -7.05556 52.1555 27.3273
    endloop
  endfacet
  facet normal -0.258819 0 0.965926
    outer loop
      vertex 62.8384 58.4686 46.0553
      vertex 63.3746 58.8719 46.199
      vertex 64.6046 62.1428 46.5286
    endloop
  endfacet
  facet normal -0.258819 0 0.965926
    outer loop
      vertex 11.9952 55.4106 32.4319
      vertex 11.5517 55.9205 32.3131
      vertex -7.05556 52.1555 27.3273
    endloop
  endfacet
  facet normal -0.258819 0 0.965926
    outer loop
      vertex 11.5517 55.9205 32.3131
      vertex 11.2203 56.5148 32.2243
      vertex -7.05556 52.1555 27.3273
    endloop
  endfacet
  facet normal -0.258819 0 0.965926
    outer loop
      vertex 62.3949 57.9587 45.9365
      vertex 62.8384 58.4686 46.0553
      vertex 64.6046 62.1428 46.5286
    endloop
  endfacet
  facet normal -0.258819 0 0.965926
    outer loop
      vertex 11.0155 57.1674 32.1694
      vertex -7.05556 52.1555 27.3273
      vertex 11.2203 56.5148 32.2243
    endloop
  endfacet
  facet normal -0.258819 0 0.965926
    outer loop
      vertex 63.9801 59.151 46.3612
      vertex 64.6284 59.2937 46.5349
      vertex 66.043 61.8263 46.914
    endloop
  endfacet
  facet normal -0.258819 0 0.965926
    outer loop
      vertex 64.6046 62.1428 46.5286
      vertex 62.0635 57.3644 45.8477
      vertex 62.3949 57.9587 45.9365
    endloop
  endfacet
  facet normal -0.258819 0 0.965926
    outer loop
      vertex 65.9395 59.151 46.8862
      vertex 66.545 58.8719 47.0485
      vertex 67.3864 61.2071 47.2739
    endloop
  endfacet
  facet normal -0.258819 0 0.965926
    outer loop
      vertex 64.6046 62.1428 46.5286
      vertex 63.3746 58.8719 46.199
      vertex 66.043 61.8263 46.914
    endloop
  endfacet
  facet normal -0.258819 0 0.965926
    outer loop
      vertex 63.3746 58.8719 46.199
      vertex 63.9801 59.151 46.3612
      vertex 66.043 61.8263 46.914
    endloop
  endfacet
  facet normal -0.258819 0 0.965926
    outer loop
      vertex 66.043 61.8263 46.914
      vertex 64.6284 59.2937 46.5349
      vertex 67.3864 61.2071 47.2739
    endloop
  endfacet
  facet normal -0.258819 0 0.965926
    outer loop
      vertex 64.6284 59.2937 46.5349
      vertex 65.2912 59.2937 46.7125
      vertex 67.3864 61.2071 47.2739
    endloop
  endfacet
  facet normal -0.258819 0 0.965926
    outer loop
      vertex 65.2912 59.2937 46.7125
      vertex 65.9395 59.151 46.8862
      vertex 67.3864 61.2071 47.2739
    endloop
  endfacet
  facet normal -0.258819 0 0.965926
    outer loop
      vertex 67.3864 61.2071 47.2739
      vertex 66.545 58.8719 47.0485
      vertex 68.5761 60.3123 47.5927
    endloop
  endfacet
  facet normal -0.258819 0 0.965926
    outer loop
      vertex 66.545 58.8719 47.0485
      vertex 67.0812 58.4686 47.1921
      vertex 68.5761 60.3123 47.5927
    endloop
  endfacet
  facet normal -0.258819 0 0.965926
    outer loop
      vertex 68.5761 60.3123 47.5927
      vertex 67.5247 57.9587 47.311
      vertex 69.56 59.1809 47.8563
    endloop
  endfacet
  facet normal -0.258819 0 0.965926
    outer loop
      vertex 67.5247 57.9587 47.311
      vertex 67.8561 57.3644 47.3998
      vertex 69.56 59.1809 47.8563
    endloop
  endfacet
  facet normal -0.258819 0 0.965926
    outer loop
      vertex 69.56 59.1809 47.8563
      vertex 68.0609 56.7119 47.4547
      vertex 70.2953 57.8625 48.0534
    endloop
  endfacet
  facet normal -0.258819 0 0.965926
    outer loop
      vertex 68.0609 56.7119 47.4547
      vertex 68.1302 56.0294 47.4732
      vertex 70.2953 57.8625 48.0534
    endloop
  endfacet
  facet normal -0.258819 0 0.965926
    outer loop
      vertex 68.1302 56.0294 47.4732
      vertex 68.0609 55.347 47.4547
      vertex 70.2953 57.8625 48.0534
    endloop
  endfacet
  facet normal -0.258819 0 0.965926
    outer loop
      vertex 68.0609 55.347 47.4547
      vertex 67.8561 54.6944 47.3998
      vertex 70.2953 57.8625 48.0534
    endloop
  endfacet
  facet normal -0.258819 0 0.965926
    outer loop
      vertex 67.8561 54.6944 47.3998
      vertex 67.5247 54.1002 47.311
      vertex 70.2953 57.8625 48.0534
    endloop
  endfacet
  facet normal -0.258819 0 0.965926
    outer loop
      vertex 66.3161 52.1555 46.9871
      vertex 66.3161 -52.1555 46.9871
      vertex 70.9034 54.9005 48.2163
    endloop
  endfacet
  facet normal -0.258819 0 0.965926
    outer loop
      vertex 15.7018 55.0073 33.4251
      vertex 63.8694 62.1827 46.3315
      vertex 16.2381 55.4106 33.5688
    endloop
  endfacet
  facet normal -0.258819 0 0.965926
    outer loop
      vertex 15.0963 54.7282 33.2628
      vertex 63.8694 62.1827 46.3315
      vertex 15.7018 55.0073 33.4251
    endloop
  endfacet
  facet normal -0.258819 0 0.965926
    outer loop
      vertex 14.448 54.5855 33.0891
      vertex 63.8694 62.1827 46.3315
      vertex 15.0963 54.7282 33.2628
    endloop
  endfacet
  facet normal -0.258819 0 0.965926
    outer loop
      vertex 14.448 54.5855 33.0891
      vertex 63.8694 62.1428 46.3315
      vertex 63.8694 62.1827 46.3315
    endloop
  endfacet
  facet normal -0.258819 0 0.965926
    outer loop
      vertex 14.448 54.5855 33.0891
      vertex 64.6046 62.1428 46.5286
      vertex 63.8694 62.1428 46.3315
    endloop
  endfacet
  facet normal -0.258819 0 0.965926
    outer loop
      vertex 14.448 54.5855 33.0891
      vertex 62.0635 57.3644 45.8477
      vertex 64.6046 62.1428 46.5286
    endloop
  endfacet
  facet normal -0.258819 0 0.965926
    outer loop
      vertex -7.05556 52.1555 27.3273
      vertex 62.0635 57.3644 45.8477
      vertex 14.448 54.5855 33.0891
    endloop
  endfacet
  facet normal -0.258819 0 0.965926
    outer loop
      vertex -7.05556 52.1555 27.3273
      vertex 61.8587 56.7119 45.7928
      vertex 62.0635 57.3644 45.8477
    endloop
  endfacet
  facet normal -0.258819 0 0.965926
    outer loop
      vertex -7.05556 52.1555 27.3273
      vertex 61.7894 56.0294 45.7742
      vertex 61.8587 56.7119 45.7928
    endloop
  endfacet
  facet normal -0.258819 0 0.965926
    outer loop
      vertex -7.05556 52.1555 27.3273
      vertex 61.8587 55.347 45.7928
      vertex 61.7894 56.0294 45.7742
    endloop
  endfacet
  facet normal -0.258819 0 0.965926
    outer loop
      vertex -7.05556 52.1555 27.3273
      vertex 62.0635 54.6944 45.8477
      vertex 61.8587 55.347 45.7928
    endloop
  endfacet
  facet normal -0.258819 0 0.965926
    outer loop
      vertex -7.05556 52.1555 27.3273
      vertex 62.3949 54.1002 45.9365
      vertex 62.0635 54.6944 45.8477
    endloop
  endfacet
  facet normal -0.258819 0 0.965926
    outer loop
      vertex 67.0812 58.4686 47.1921
      vertex 67.5247 57.9587 47.311
      vertex 68.5761 60.3123 47.5927
    endloop
  endfacet
  facet normal -0.258819 0 0.965926
    outer loop
      vertex -7.05556 52.1555 27.3273
      vertex 62.8384 53.5903 46.0553
      vertex 62.3949 54.1002 45.9365
    endloop
  endfacet
  facet normal -0.258819 0 0.965926
    outer loop
      vertex -7.05556 52.1555 27.3273
      vertex 63.3746 53.1869 46.199
      vertex 62.8384 53.5903 46.0553
    endloop
  endfacet
  facet normal -0.258819 0 0.965926
    outer loop
      vertex 67.8561 57.3644 47.3998
      vertex 68.0609 56.7119 47.4547
      vertex 69.56 59.1809 47.8563
    endloop
  endfacet
  facet normal -0.258819 0 0.965926
    outer loop
      vertex -7.05556 52.1555 27.3273
      vertex 63.9801 52.9078 46.3612
      vertex 63.3746 53.1869 46.199
    endloop
  endfacet
  facet normal -0.258819 0 0.965926
    outer loop
      vertex -7.05556 52.1555 27.3273
      vertex 64.6284 52.7652 46.5349
      vertex 63.9801 52.9078 46.3612
    endloop
  endfacet
  facet normal -0.258819 0 0.965926
    outer loop
      vertex -7.05556 52.1555 27.3273
      vertex 65.2912 52.7652 46.7125
      vertex 64.6284 52.7652 46.5349
    endloop
  endfacet
  facet normal -0.258819 0 0.965926
    outer loop
      vertex 67.5247 54.1002 47.311
      vertex 66.3161 52.1555 46.9871
      vertex 70.2953 57.8625 48.0534
    endloop
  endfacet
  facet normal -0.258819 0 0.965926
    outer loop
      vertex 67.0812 53.5903 47.1921
      vertex 66.3161 52.1555 46.9871
      vertex 67.5247 54.1002 47.311
    endloop
  endfacet
  facet normal -0.258819 0 0.965926
    outer loop
      vertex 66.545 53.1869 47.0485
      vertex 66.3161 52.1555 46.9871
      vertex 67.0812 53.5903 47.1921
    endloop
  endfacet
  facet normal -0.258819 0 0.965926
    outer loop
      vertex 65.9395 52.9078 46.8862
      vertex 66.3161 52.1555 46.9871
      vertex 66.545 53.1869 47.0485
    endloop
  endfacet
  facet normal -0.258819 0 0.965926
    outer loop
      vertex 65.2912 52.7652 46.7125
      vertex 66.3161 52.1555 46.9871
      vertex 65.9395 52.9078 46.8862
    endloop
  endfacet
  facet normal -0.258819 0 0.965926
    outer loop
      vertex -7.05556 52.1555 27.3273
      vertex 66.3161 52.1555 46.9871
      vertex 65.2912 52.7652 46.7125
    endloop
  endfacet
  facet normal 0.965926 0 0.258819
    outer loop
      vertex 63.8694 -62.1428 46.3315
      vertex 63.8694 -62.1827 46.3315
      vertex 76.2839 -62.1827 0
    endloop
  endfacet
  facet normal 0.965926 0 0.258819
    outer loop
      vertex 76.2839 -62.1428 0
      vertex 63.8694 -62.1428 46.3315
      vertex 76.2839 -62.1827 0
    endloop
  endfacet
  facet normal 0 1 0
    outer loop
      vertex 66.3161 -52.1555 46.9871
      vertex 66.3161 -52.1555 0
      vertex -7.05556 -52.1555 27.3273
    endloop
  endfacet
  facet normal 0 1 0
    outer loop
      vertex -7.05556 -52.1555 27.3273
      vertex 66.3161 -52.1555 0
      vertex -7.05556 -52.1555 0
    endloop
  endfacet
  facet normal 0 -1 0
    outer loop
      vertex 64.6046 -62.1428 46.5286
      vertex 63.8694 -62.1428 46.3315
      vertex 76.2839 -62.1428 0
    endloop
  endfacet
  facet normal 0 -1 0
    outer loop
      vertex 77.0719 -62.1428 0
      vertex 64.6046 -62.1428 46.5286
      vertex 76.2839 -62.1428 0
    endloop
  endfacet
  facet normal 0.200827 -0.978148 0.0538115
    outer loop
      vertex 66.043 -61.8263 46.914
      vertex 64.6046 -62.1428 46.5286
      vertex 77.0719 -62.1428 0
    endloop
  endfacet
  facet normal 0.200827 -0.978148 0.0538115
    outer loop
      vertex 78.6136 -61.8263 0
      vertex 66.043 -61.8263 46.914
      vertex 77.0719 -62.1428 0
    endloop
  endfacet
  facet normal 0.392877 -0.913545 0.105271
    outer loop
      vertex 67.3864 -61.2071 47.2739
      vertex 66.043 -61.8263 46.914
      vertex 78.6136 -61.8263 0
    endloop
  endfacet
  facet normal 0.392877 -0.913545 0.105271
    outer loop
      vertex 80.0534 -61.2071 0
      vertex 67.3864 -61.2071 47.2739
      vertex 78.6136 -61.8263 0
    endloop
  endfacet
  facet normal 0.567757 -0.809017 0.15213
    outer loop
      vertex 68.5761 -60.3123 47.5927
      vertex 67.3864 -61.2071 47.2739
      vertex 80.0534 -61.2071 0
    endloop
  endfacet
  facet normal 0.567757 -0.809017 0.15213
    outer loop
      vertex 81.3285 -60.3123 0
      vertex 68.5761 -60.3123 47.5927
      vertex 80.0534 -61.2071 0
    endloop
  endfacet
  facet normal 0.717823 -0.669131 0.19234
    outer loop
      vertex 69.56 -59.1809 47.8563
      vertex 68.5761 -60.3123 47.5927
      vertex 81.3285 -60.3123 0
    endloop
  endfacet
  facet normal 0.717823 -0.669131 0.19234
    outer loop
      vertex 82.3831 -59.1809 0
      vertex 69.56 -59.1809 47.8563
      vertex 81.3285 -60.3123 0
    endloop
  endfacet
  facet normal 0.836516 -0.5 0.224144
    outer loop
      vertex 70.2953 -57.8625 48.0534
      vertex 69.56 -59.1809 47.8563
      vertex 82.3831 -59.1809 0
    endloop
  endfacet
  facet normal 0.836516 -0.5 0.224144
    outer loop
      vertex 83.1711 -57.8625 0
      vertex 70.2953 -57.8625 48.0534
      vertex 82.3831 -59.1809 0
    endloop
  endfacet
  facet normal 0.91865 -0.309017 0.246152
    outer loop
      vertex 70.7497 -56.4146 48.1751
      vertex 70.2953 -57.8625 48.0534
      vertex 83.1711 -57.8625 0
    endloop
  endfacet
  facet normal 0.91865 -0.309017 0.246152
    outer loop
      vertex 83.6582 -56.4146 0
      vertex 70.7497 -56.4146 48.1751
      vertex 83.1711 -57.8625 0
    endloop
  endfacet
  facet normal 0.960634 -0.104528 0.257401
    outer loop
      vertex 70.9034 -54.9005 48.2163
      vertex 70.7497 -56.4146 48.1751
      vertex 83.6582 -56.4146 0
    endloop
  endfacet
  facet normal 0.960634 -0.104528 0.257401
    outer loop
      vertex 83.8229 -54.9005 0
      vertex 70.9034 -54.9005 48.2163
      vertex 83.6582 -56.4146 0
    endloop
  endfacet
  facet normal 0.965926 0 0.258819
    outer loop
      vertex 70.9034 54.9005 48.2163
      vertex 70.9034 -54.9005 48.2163
      vertex 83.8229 -54.9005 0
    endloop
  endfacet
  facet normal 0.965926 0 0.258819
    outer loop
      vertex 83.8229 54.9005 0
      vertex 70.9034 54.9005 48.2163
      vertex 83.8229 -54.9005 0
    endloop
  endfacet
  facet normal 0.960634 0.104528 0.257401
    outer loop
      vertex 83.6582 56.4146 0
      vertex 70.7497 56.4146 48.1751
      vertex 70.9034 54.9005 48.2163
    endloop
  endfacet
  facet normal 0.960634 0.104528 0.257401
    outer loop
      vertex 83.8229 54.9005 0
      vertex 83.6582 56.4146 0
      vertex 70.9034 54.9005 48.2163
    endloop
  endfacet
  facet normal 0.91865 0.309017 0.246152
    outer loop
      vertex 83.1711 57.8625 0
      vertex 70.2953 57.8625 48.0534
      vertex 70.7497 56.4146 48.1751
    endloop
  endfacet
  facet normal 0.91865 0.309017 0.246152
    outer loop
      vertex 83.6582 56.4146 0
      vertex 83.1711 57.8625 0
      vertex 70.7497 56.4146 48.1751
    endloop
  endfacet
  facet normal 0.836516 0.5 0.224144
    outer loop
      vertex 82.3831 59.1809 0
      vertex 69.56 59.1809 47.8563
      vertex 70.2953 57.8625 48.0534
    endloop
  endfacet
  facet normal 0.836516 0.5 0.224144
    outer loop
      vertex 83.1711 57.8625 0
      vertex 82.3831 59.1809 0
      vertex 70.2953 57.8625 48.0534
    endloop
  endfacet
  facet normal 0.717823 0.669131 0.19234
    outer loop
      vertex 81.3285 60.3123 0
      vertex 68.5761 60.3123 47.5927
      vertex 69.56 59.1809 47.8563
    endloop
  endfacet
  facet normal 0.717823 0.669131 0.19234
    outer loop
      vertex 82.3831 59.1809 0
      vertex 81.3285 60.3123 0
      vertex 69.56 59.1809 47.8563
    endloop
  endfacet
  facet normal 0.567757 0.809017 0.15213
    outer loop
      vertex 67.3864 61.2071 47.2739
      vertex 68.5761 60.3123 47.5927
      vertex 80.0534 61.2071 0
    endloop
  endfacet
  facet normal 0.567757 0.809017 0.15213
    outer loop
      vertex 80.0534 61.2071 0
      vertex 68.5761 60.3123 47.5927
      vertex 81.3285 60.3123 0
    endloop
  endfacet
  facet normal 0.392877 0.913545 0.105271
    outer loop
      vertex 66.043 61.8263 46.914
      vertex 67.3864 61.2071 47.2739
      vertex 78.6136 61.8263 0
    endloop
  endfacet
  facet normal 0.392877 0.913545 0.105271
    outer loop
      vertex 78.6136 61.8263 0
      vertex 67.3864 61.2071 47.2739
      vertex 80.0534 61.2071 0
    endloop
  endfacet
  facet normal 0.200827 0.978148 0.0538115
    outer loop
      vertex 64.6046 62.1428 46.5286
      vertex 66.043 61.8263 46.914
      vertex 77.0719 62.1428 0
    endloop
  endfacet
  facet normal 0.200827 0.978148 0.0538115
    outer loop
      vertex 77.0719 62.1428 0
      vertex 66.043 61.8263 46.914
      vertex 78.6136 61.8263 0
    endloop
  endfacet
  facet normal 0 1 0
    outer loop
      vertex 63.8694 62.1428 46.3315
      vertex 64.6046 62.1428 46.5286
      vertex 76.2839 62.1428 0
    endloop
  endfacet
  facet normal 0 1 0
    outer loop
      vertex 76.2839 62.1428 0
      vertex 64.6046 62.1428 46.5286
      vertex 77.0719 62.1428 0
    endloop
  endfacet
  facet normal 0.965926 0 0.258819
    outer loop
      vertex 63.8694 62.1827 46.3315
      vertex 63.8694 62.1428 46.3315
      vertex 76.2839 62.1428 0
    endloop
  endfacet
  facet normal 0.965926 0 0.258819
    outer loop
      vertex 76.2839 62.1827 0
      vertex 63.8694 62.1827 46.3315
      vertex 76.2839 62.1428 0
    endloop
  endfacet
  facet normal 0 1 0
    outer loop
      vertex -7.05556 62.1827 0
      vertex -7.05556 62.1827 27.3273
      vertex 76.2839 62.1827 0
    endloop
  endfacet
  facet normal 0 1 0
    outer loop
      vertex 76.2839 62.1827 0
      vertex -7.05556 62.1827 27.3273
      vertex 63.8694 62.1827 46.3315
    endloop
  endfacet
  facet normal -1 0 0
    outer loop
      vertex -7.05556 62.1827 27.3273
      vertex -7.05556 62.1827 0
      vertex -7.05556 52.1555 27.3273
    endloop
  endfacet
  facet normal -1 0 0
    outer loop
      vertex -7.05556 52.1555 27.3273
      vertex -7.05556 62.1827 0
      vertex -7.05556 52.1555 0
    endloop
  endfacet
  facet normal 0 -1 0
    outer loop
      vertex 66.3161 52.1555 0
      vertex 66.3161 52.1555 46.9871
      vertex -7.05556 52.1555 27.3273
    endloop
  endfacet
  facet normal 0 -1 0
    outer loop
      vertex -7.05556 52.1555 0
      vertex 66.3161 52.1555 0
      vertex -7.05556 52.1555 27.3273
    endloop
  endfacet
  facet normal -1 0 0
    outer loop
      vertex 66.3161 52.1555 46.9871
      vertex 66.3161 52.1555 0
      vertex 66.3161 -52.1555 46.9871
    endloop
  endfacet
  facet normal -1 0 0
    outer loop
      vertex 66.3161 -52.1555 46.9871
      vertex 66.3161 52.1555 0
      vertex 66.3161 -52.1555 0
    endloop
  endfacet
  facet normal 0.91865 0.309017 0.246152
    outer loop
      vertex 11.2203 56.5148 32.2243
      vertex 19.8548 56.5148 0
      vertex 19.6353 57.1674 0
    endloop
  endfacet
  facet normal 0.91865 0.309017 0.246152
    outer loop
      vertex 11.0155 57.1674 32.1694
      vertex 11.2203 56.5148 32.2243
      vertex 19.6353 57.1674 0
    endloop
  endfacet
  facet normal 0.960634 0.104528 0.257401
    outer loop
      vertex 11.0155 57.1674 32.1694
      vertex 19.6353 57.1674 0
      vertex 19.561 57.8498 0
    endloop
  endfacet
  facet normal 0.960634 0.104528 0.257401
    outer loop
      vertex 10.9462 57.8498 32.1508
      vertex 11.0155 57.1674 32.1694
      vertex 19.561 57.8498 0
    endloop
  endfacet
  facet normal 0.960634 -0.104528 0.257401
    outer loop
      vertex 19.561 57.8498 0
      vertex 19.6353 58.5322 0
      vertex 11.0155 58.5322 32.1694
    endloop
  endfacet
  facet normal 0.960634 -0.104528 0.257401
    outer loop
      vertex 10.9462 57.8498 32.1508
      vertex 19.561 57.8498 0
      vertex 11.0155 58.5322 32.1694
    endloop
  endfacet
  facet normal 0.91865 -0.309017 0.246152
    outer loop
      vertex 19.6353 58.5322 0
      vertex 19.8548 59.1848 0
      vertex 11.2203 59.1848 32.2243
    endloop
  endfacet
  facet normal 0.91865 -0.309017 0.246152
    outer loop
      vertex 11.0155 58.5322 32.1694
      vertex 19.6353 58.5322 0
      vertex 11.2203 59.1848 32.2243
    endloop
  endfacet
  facet normal 0.836516 -0.5 0.224144
    outer loop
      vertex 19.8548 59.1848 0
      vertex 20.21 59.779 0
      vertex 11.5517 59.779 32.3131
    endloop
  endfacet
  facet normal 0.836516 -0.5 0.224144
    outer loop
      vertex 11.2203 59.1848 32.2243
      vertex 19.8548 59.1848 0
      vertex 11.5517 59.779 32.3131
    endloop
  endfacet
  facet normal 0.717823 -0.669131 0.19234
    outer loop
      vertex 20.21 59.779 0
      vertex 20.6853 60.289 0
      vertex 11.9952 60.289 32.4319
    endloop
  endfacet
  facet normal 0.717823 -0.669131 0.19234
    outer loop
      vertex 11.5517 59.779 32.3131
      vertex 20.21 59.779 0
      vertex 11.9952 60.289 32.4319
    endloop
  endfacet
  facet normal 0.567757 -0.809017 0.15213
    outer loop
      vertex 20.6853 60.289 0
      vertex 21.26 60.6923 0
      vertex 12.5314 60.6923 32.5756
    endloop
  endfacet
  facet normal 0.567757 -0.809017 0.15213
    outer loop
      vertex 11.9952 60.289 32.4319
      vertex 20.6853 60.289 0
      vertex 12.5314 60.6923 32.5756
    endloop
  endfacet
  facet normal 0.392878 -0.913545 0.105271
    outer loop
      vertex 21.26 60.6923 0
      vertex 21.909 60.9714 0
      vertex 13.1369 60.9714 32.7378
    endloop
  endfacet
  facet normal 0.392878 -0.913545 0.105271
    outer loop
      vertex 12.5314 60.6923 32.5756
      vertex 21.26 60.6923 0
      vertex 13.1369 60.9714 32.7378
    endloop
  endfacet
  facet normal 0.200827 -0.978148 0.0538116
    outer loop
      vertex 21.909 60.9714 0
      vertex 22.6039 61.114 0
      vertex 13.7852 61.114 32.9115
    endloop
  endfacet
  facet normal 0.200827 -0.978148 0.0538116
    outer loop
      vertex 13.1369 60.9714 32.7378
      vertex 21.909 60.9714 0
      vertex 13.7852 61.114 32.9115
    endloop
  endfacet
  facet normal 0 -1 0
    outer loop
      vertex 22.6039 61.114 0
      vertex 23.3142 61.114 0
      vertex 14.448 61.114 33.0891
    endloop
  endfacet
  facet normal 0 -1 0
    outer loop
      vertex 13.7852 61.114 32.9115
      vertex 22.6039 61.114 0
      vertex 14.448 61.114 33.0891
    endloop
  endfacet
  facet normal -0.200827 -0.978148 -0.0538116
    outer loop
      vertex 23.3142 61.114 0
      vertex 24.0091 60.9714 0
      vertex 15.0963 60.9714 33.2628
    endloop
  endfacet
  facet normal -0.200827 -0.978148 -0.0538116
    outer loop
      vertex 14.448 61.114 33.0891
      vertex 23.3142 61.114 0
      vertex 15.0963 60.9714 33.2628
    endloop
  endfacet
  facet normal -0.392878 -0.913545 -0.105271
    outer loop
      vertex 24.0091 60.9714 0
      vertex 24.6581 60.6923 0
      vertex 15.7018 60.6923 33.4251
    endloop
  endfacet
  facet normal -0.392878 -0.913545 -0.105271
    outer loop
      vertex 15.0963 60.9714 33.2628
      vertex 24.0091 60.9714 0
      vertex 15.7018 60.6923 33.4251
    endloop
  endfacet
  facet normal -0.567757 -0.809017 -0.15213
    outer loop
      vertex 24.6581 60.6923 0
      vertex 25.2328 60.289 0
      vertex 16.2381 60.289 33.5688
    endloop
  endfacet
  facet normal -0.567757 -0.809017 -0.15213
    outer loop
      vertex 15.7018 60.6923 33.4251
      vertex 24.6581 60.6923 0
      vertex 16.2381 60.289 33.5688
    endloop
  endfacet
  facet normal -0.717823 -0.669131 -0.19234
    outer loop
      vertex 25.7081 59.779 0
      vertex 16.6815 59.779 33.6876
      vertex 25.2328 60.289 0
    endloop
  endfacet
  facet normal -0.717823 -0.669131 -0.19234
    outer loop
      vertex 25.2328 60.289 0
      vertex 16.6815 59.779 33.6876
      vertex 16.2381 60.289 33.5688
    endloop
  endfacet
  facet normal -0.836516 -0.5 -0.224144
    outer loop
      vertex 26.0633 59.1848 0
      vertex 17.0129 59.1848 33.7764
      vertex 25.7081 59.779 0
    endloop
  endfacet
  facet normal -0.836516 -0.5 -0.224144
    outer loop
      vertex 25.7081 59.779 0
      vertex 17.0129 59.1848 33.7764
      vertex 16.6815 59.779 33.6876
    endloop
  endfacet
  facet normal -0.91865 -0.309017 -0.246152
    outer loop
      vertex 26.2828 58.5322 0
      vertex 17.2178 58.5322 33.8313
      vertex 26.0633 59.1848 0
    endloop
  endfacet
  facet normal -0.91865 -0.309017 -0.246152
    outer loop
      vertex 26.0633 59.1848 0
      vertex 17.2178 58.5322 33.8313
      vertex 17.0129 59.1848 33.7764
    endloop
  endfacet
  facet normal -0.960634 -0.104528 -0.257401
    outer loop
      vertex 26.3571 57.8498 0
      vertex 17.287 57.8498 33.8498
      vertex 26.2828 58.5322 0
    endloop
  endfacet
  facet normal -0.960634 -0.104528 -0.257401
    outer loop
      vertex 26.2828 58.5322 0
      vertex 17.287 57.8498 33.8498
      vertex 17.2178 58.5322 33.8313
    endloop
  endfacet
  facet normal -0.960634 0.104528 -0.257401
    outer loop
      vertex 26.3571 57.8498 0
      vertex 26.2828 57.1674 0
      vertex 17.287 57.8498 33.8498
    endloop
  endfacet
  facet normal -0.960634 0.104528 -0.257401
    outer loop
      vertex 17.287 57.8498 33.8498
      vertex 26.2828 57.1674 0
      vertex 17.2178 57.1674 33.8313
    endloop
  endfacet
  facet normal -0.91865 0.309017 -0.246152
    outer loop
      vertex 26.2828 57.1674 0
      vertex 26.0633 56.5148 0
      vertex 17.2178 57.1674 33.8313
    endloop
  endfacet
  facet normal -0.91865 0.309017 -0.246152
    outer loop
      vertex 17.2178 57.1674 33.8313
      vertex 26.0633 56.5148 0
      vertex 17.0129 56.5148 33.7764
    endloop
  endfacet
  facet normal -0.836516 0.5 -0.224144
    outer loop
      vertex 26.0633 56.5148 0
      vertex 25.7081 55.9205 0
      vertex 17.0129 56.5148 33.7764
    endloop
  endfacet
  facet normal -0.836516 0.5 -0.224144
    outer loop
      vertex 17.0129 56.5148 33.7764
      vertex 25.7081 55.9205 0
      vertex 16.6815 55.9205 33.6876
    endloop
  endfacet
  facet normal -0.717823 0.669131 -0.19234
    outer loop
      vertex 25.7081 55.9205 0
      vertex 25.2328 55.4106 0
      vertex 16.6815 55.9205 33.6876
    endloop
  endfacet
  facet normal -0.717823 0.669131 -0.19234
    outer loop
      vertex 16.6815 55.9205 33.6876
      vertex 25.2328 55.4106 0
      vertex 16.2381 55.4106 33.5688
    endloop
  endfacet
  facet normal -0.567757 0.809017 -0.15213
    outer loop
      vertex 25.2328 55.4106 0
      vertex 24.6581 55.0073 0
      vertex 16.2381 55.4106 33.5688
    endloop
  endfacet
  facet normal -0.567757 0.809017 -0.15213
    outer loop
      vertex 16.2381 55.4106 33.5688
      vertex 24.6581 55.0073 0
      vertex 15.7018 55.0073 33.4251
    endloop
  endfacet
  facet normal -0.392878 0.913545 -0.105271
    outer loop
      vertex 24.6581 55.0073 0
      vertex 24.0091 54.7282 0
      vertex 15.7018 55.0073 33.4251
    endloop
  endfacet
  facet normal -0.392878 0.913545 -0.105271
    outer loop
      vertex 15.7018 55.0073 33.4251
      vertex 24.0091 54.7282 0
      vertex 15.0963 54.7282 33.2628
    endloop
  endfacet
  facet normal -0.200827 0.978148 -0.0538116
    outer loop
      vertex 24.0091 54.7282 0
      vertex 23.3142 54.5855 0
      vertex 15.0963 54.7282 33.2628
    endloop
  endfacet
  facet normal -0.200827 0.978148 -0.0538116
    outer loop
      vertex 15.0963 54.7282 33.2628
      vertex 23.3142 54.5855 0
      vertex 14.448 54.5855 33.0891
    endloop
  endfacet
  facet normal 0 1 0
    outer loop
      vertex 23.3142 54.5855 0
      vertex 22.6039 54.5855 0
      vertex 14.448 54.5855 33.0891
    endloop
  endfacet
  facet normal 0 1 0
    outer loop
      vertex 14.448 54.5855 33.0891
      vertex 22.6039 54.5855 0
      vertex 13.7852 54.5855 32.9115
    endloop
  endfacet
  facet normal 0.200827 0.978148 0.0538116
    outer loop
      vertex 22.6039 54.5855 0
      vertex 21.909 54.7282 0
      vertex 13.7852 54.5855 32.9115
    endloop
  endfacet
  facet normal 0.200827 0.978148 0.0538116
    outer loop
      vertex 13.7852 54.5855 32.9115
      vertex 21.909 54.7282 0
      vertex 13.1369 54.7282 32.7378
    endloop
  endfacet
  facet normal 0.392878 0.913545 0.105271
    outer loop
      vertex 21.909 54.7282 0
      vertex 21.26 55.0073 0
      vertex 13.1369 54.7282 32.7378
    endloop
  endfacet
  facet normal 0.392878 0.913545 0.105271
    outer loop
      vertex 13.1369 54.7282 32.7378
      vertex 21.26 55.0073 0
      vertex 12.5314 55.0073 32.5756
    endloop
  endfacet
  facet normal 0.567757 0.809017 0.15213
    outer loop
      vertex 21.26 55.0073 0
      vertex 20.6853 55.4106 0
      vertex 12.5314 55.0073 32.5756
    endloop
  endfacet
  facet normal 0.567757 0.809017 0.15213
    outer loop
      vertex 12.5314 55.0073 32.5756
      vertex 20.6853 55.4106 0
      vertex 11.9952 55.4106 32.4319
    endloop
  endfacet
  facet normal 0.717823 0.669131 0.19234
    outer loop
      vertex 11.9952 55.4106 32.4319
      vertex 20.6853 55.4106 0
      vertex 20.21 55.9205 0
    endloop
  endfacet
  facet normal 0.717823 0.669131 0.19234
    outer loop
      vertex 11.5517 55.9205 32.3131
      vertex 11.9952 55.4106 32.4319
      vertex 20.21 55.9205 0
    endloop
  endfacet
  facet normal 0.836516 0.5 0.224144
    outer loop
      vertex 11.5517 55.9205 32.3131
      vertex 20.21 55.9205 0
      vertex 19.8548 56.5148 0
    endloop
  endfacet
  facet normal 0.836516 0.5 0.224144
    outer loop
      vertex 11.2203 56.5148 32.2243
      vertex 11.5517 55.9205 32.3131
      vertex 19.8548 56.5148 0
    endloop
  endfacet
  facet normal 0.91865 0.309017 0.246152
    outer loop
      vertex 62.0635 54.6944 45.8477
      vertex 74.3483 54.6944 0
      vertex 74.1288 55.347 0
    endloop
  endfacet
  facet normal 0.91865 0.309017 0.246152
    outer loop
      vertex 61.8587 55.347 45.7928
      vertex 62.0635 54.6944 45.8477
      vertex 74.1288 55.347 0
    endloop
  endfacet
  facet normal 0.960634 0.104528 0.257401
    outer loop
      vertex 61.8587 55.347 45.7928
      vertex 74.1288 55.347 0
      vertex 74.0545 56.0294 0
    endloop
  endfacet
  facet normal 0.960634 0.104528 0.257401
    outer loop
      vertex 61.7894 56.0294 45.7742
      vertex 61.8587 55.347 45.7928
      vertex 74.0545 56.0294 0
    endloop
  endfacet
  facet normal 0.960634 -0.104528 0.257401
    outer loop
      vertex 74.0545 56.0294 0
      vertex 74.1288 56.7119 0
      vertex 61.8587 56.7119 45.7928
    endloop
  endfacet
  facet normal 0.960634 -0.104528 0.257401
    outer loop
      vertex 61.7894 56.0294 45.7742
      vertex 74.0545 56.0294 0
      vertex 61.8587 56.7119 45.7928
    endloop
  endfacet
  facet normal 0.91865 -0.309017 0.246152
    outer loop
      vertex 74.1288 56.7119 0
      vertex 74.3483 57.3644 0
      vertex 62.0635 57.3644 45.8477
    endloop
  endfacet
  facet normal 0.91865 -0.309017 0.246152
    outer loop
      vertex 61.8587 56.7119 45.7928
      vertex 74.1288 56.7119 0
      vertex 62.0635 57.3644 45.8477
    endloop
  endfacet
  facet normal 0.836516 -0.5 0.224144
    outer loop
      vertex 74.3483 57.3644 0
      vertex 74.7035 57.9587 0
      vertex 62.3949 57.9587 45.9365
    endloop
  endfacet
  facet normal 0.836516 -0.5 0.224144
    outer loop
      vertex 62.0635 57.3644 45.8477
      vertex 74.3483 57.3644 0
      vertex 62.3949 57.9587 45.9365
    endloop
  endfacet
  facet normal 0.717823 -0.669131 0.19234
    outer loop
      vertex 74.7035 57.9587 0
      vertex 75.1788 58.4686 0
      vertex 62.8384 58.4686 46.0553
    endloop
  endfacet
  facet normal 0.717823 -0.669131 0.19234
    outer loop
      vertex 62.3949 57.9587 45.9365
      vertex 74.7035 57.9587 0
      vertex 62.8384 58.4686 46.0553
    endloop
  endfacet
  facet normal 0.567757 -0.809017 0.15213
    outer loop
      vertex 75.1788 58.4686 0
      vertex 75.7536 58.8719 0
      vertex 63.3746 58.8719 46.199
    endloop
  endfacet
  facet normal 0.567757 -0.809017 0.15213
    outer loop
      vertex 62.8384 58.4686 46.0553
      vertex 75.1788 58.4686 0
      vertex 63.3746 58.8719 46.199
    endloop
  endfacet
  facet normal 0.392878 -0.913545 0.105271
    outer loop
      vertex 75.7536 58.8719 0
      vertex 76.4025 59.151 0
      vertex 63.9801 59.151 46.3612
    endloop
  endfacet
  facet normal 0.392878 -0.913545 0.105271
    outer loop
      vertex 63.3746 58.8719 46.199
      vertex 75.7536 58.8719 0
      vertex 63.9801 59.151 46.3612
    endloop
  endfacet
  facet normal 0.200827 -0.978148 0.0538116
    outer loop
      vertex 76.4025 59.151 0
      vertex 77.0974 59.2937 0
      vertex 64.6284 59.2937 46.5349
    endloop
  endfacet
  facet normal 0.200827 -0.978148 0.0538116
    outer loop
      vertex 63.9801 59.151 46.3612
      vertex 76.4025 59.151 0
      vertex 64.6284 59.2937 46.5349
    endloop
  endfacet
  facet normal 0 -1 0
    outer loop
      vertex 77.0974 59.2937 0
      vertex 77.8078 59.2937 0
      vertex 65.2912 59.2937 46.7125
    endloop
  endfacet
  facet normal 0 -1 0
    outer loop
      vertex 64.6284 59.2937 46.5349
      vertex 77.0974 59.2937 0
      vertex 65.2912 59.2937 46.7125
    endloop
  endfacet
  facet normal -0.200827 -0.978148 -0.0538116
    outer loop
      vertex 77.8078 59.2937 0
      vertex 78.5026 59.151 0
      vertex 65.9395 59.151 46.8862
    endloop
  endfacet
  facet normal -0.200827 -0.978148 -0.0538116
    outer loop
      vertex 65.2912 59.2937 46.7125
      vertex 77.8078 59.2937 0
      vertex 65.9395 59.151 46.8862
    endloop
  endfacet
  facet normal -0.392878 -0.913545 -0.105271
    outer loop
      vertex 78.5026 59.151 0
      vertex 79.1516 58.8719 0
      vertex 66.545 58.8719 47.0485
    endloop
  endfacet
  facet normal -0.392878 -0.913545 -0.105271
    outer loop
      vertex 65.9395 59.151 46.8862
      vertex 78.5026 59.151 0
      vertex 66.545 58.8719 47.0485
    endloop
  endfacet
  facet normal -0.567757 -0.809017 -0.15213
    outer loop
      vertex 79.1516 58.8719 0
      vertex 79.7263 58.4686 0
      vertex 67.0812 58.4686 47.1921
    endloop
  endfacet
  facet normal -0.567757 -0.809017 -0.15213
    outer loop
      vertex 66.545 58.8719 47.0485
      vertex 79.1516 58.8719 0
      vertex 67.0812 58.4686 47.1921
    endloop
  endfacet
  facet normal -0.717823 -0.669131 -0.19234
    outer loop
      vertex 80.2016 57.9587 0
      vertex 67.5247 57.9587 47.311
      vertex 79.7263 58.4686 0
    endloop
  endfacet
  facet normal -0.717823 -0.669131 -0.19234
    outer loop
      vertex 79.7263 58.4686 0
      vertex 67.5247 57.9587 47.311
      vertex 67.0812 58.4686 47.1921
    endloop
  endfacet
  facet normal -0.836516 -0.5 -0.224144
    outer loop
      vertex 80.5568 57.3644 0
      vertex 67.8561 57.3644 47.3998
      vertex 80.2016 57.9587 0
    endloop
  endfacet
  facet normal -0.836516 -0.5 -0.224144
    outer loop
      vertex 80.2016 57.9587 0
      vertex 67.8561 57.3644 47.3998
      vertex 67.5247 57.9587 47.311
    endloop
  endfacet
  facet normal -0.91865 -0.309017 -0.246152
    outer loop
      vertex 80.7763 56.7119 0
      vertex 68.0609 56.7119 47.4547
      vertex 80.5568 57.3644 0
    endloop
  endfacet
  facet normal -0.91865 -0.309017 -0.246152
    outer loop
      vertex 80.5568 57.3644 0
      vertex 68.0609 56.7119 47.4547
      vertex 67.8561 57.3644 47.3998
    endloop
  endfacet
  facet normal -0.960634 -0.104528 -0.257401
    outer loop
      vertex 80.8506 56.0294 0
      vertex 68.1302 56.0294 47.4732
      vertex 80.7763 56.7119 0
    endloop
  endfacet
  facet normal -0.960634 -0.104528 -0.257401
    outer loop
      vertex 80.7763 56.7119 0
      vertex 68.1302 56.0294 47.4732
      vertex 68.0609 56.7119 47.4547
    endloop
  endfacet
  facet normal -0.960634 0.104528 -0.257401
    outer loop
      vertex 80.8506 56.0294 0
      vertex 80.7763 55.347 0
      vertex 68.1302 56.0294 47.4732
    endloop
  endfacet
  facet normal -0.960634 0.104528 -0.257401
    outer loop
      vertex 68.1302 56.0294 47.4732
      vertex 80.7763 55.347 0
      vertex 68.0609 55.347 47.4547
    endloop
  endfacet
  facet normal -0.91865 0.309017 -0.246152
    outer loop
      vertex 80.7763 55.347 0
      vertex 80.5568 54.6944 0
      vertex 68.0609 55.347 47.4547
    endloop
  endfacet
  facet normal -0.91865 0.309017 -0.246152
    outer loop
      vertex 68.0609 55.347 47.4547
      vertex 80.5568 54.6944 0
      vertex 67.8561 54.6944 47.3998
    endloop
  endfacet
  facet normal -0.836516 0.5 -0.224144
    outer loop
      vertex 80.5568 54.6944 0
      vertex 80.2016 54.1002 0
      vertex 67.8561 54.6944 47.3998
    endloop
  endfacet
  facet normal -0.836516 0.5 -0.224144
    outer loop
      vertex 67.8561 54.6944 47.3998
      vertex 80.2016 54.1002 0
      vertex 67.5247 54.1002 47.311
    endloop
  endfacet
  facet normal -0.717823 0.669131 -0.19234
    outer loop
      vertex 80.2016 54.1002 0
      vertex 79.7263 53.5903 0
      vertex 67.5247 54.1002 47.311
    endloop
  endfacet
  facet normal -0.717823 0.669131 -0.19234
    outer loop
      vertex 67.5247 54.1002 47.311
      vertex 79.7263 53.5903 0
      vertex 67.0812 53.5903 47.1921
    endloop
  endfacet
  facet normal -0.567757 0.809017 -0.15213
    outer loop
      vertex 79.7263 53.5903 0
      vertex 79.1516 53.1869 0
      vertex 67.0812 53.5903 47.1921
    endloop
  endfacet
  facet normal -0.567757 0.809017 -0.15213
    outer loop
      vertex 67.0812 53.5903 47.1921
      vertex 79.1516 53.1869 0
      vertex 66.545 53.1869 47.0485
    endloop
  endfacet
  facet normal -0.392878 0.913545 -0.105271
    outer loop
      vertex 79.1516 53.1869 0
      vertex 78.5026 52.9078 0
      vertex 66.545 53.1869 47.0485
    endloop
  endfacet
  facet normal -0.392878 0.913545 -0.105271
    outer loop
      vertex 66.545 53.1869 47.0485
      vertex 78.5026 52.9078 0
      vertex 65.9395 52.9078 46.8862
    endloop
  endfacet
  facet normal -0.200827 0.978148 -0.0538116
    outer loop
      vertex 78.5026 52.9078 0
      vertex 77.8078 52.7652 0
      vertex 65.9395 52.9078 46.8862
    endloop
  endfacet
  facet normal -0.200827 0.978148 -0.0538116
    outer loop
      vertex 65.9395 52.9078 46.8862
      vertex 77.8078 52.7652 0
      vertex 65.2912 52.7652 46.7125
    endloop
  endfacet
  facet normal 0 1 0
    outer loop
      vertex 77.8078 52.7652 0
      vertex 77.0974 52.7652 0
      vertex 65.2912 52.7652 46.7125
    endloop
  endfacet
  facet normal 0 1 0
    outer loop
      vertex 65.2912 52.7652 46.7125
      vertex 77.0974 52.7652 0
      vertex 64.6284 52.7652 46.5349
    endloop
  endfacet
  facet normal 0.200827 0.978148 0.0538116
    outer loop
      vertex 77.0974 52.7652 0
      vertex 76.4025 52.9078 0
      vertex 64.6284 52.7652 46.5349
    endloop
  endfacet
  facet normal 0.200827 0.978148 0.0538116
    outer loop
      vertex 64.6284 52.7652 46.5349
      vertex 76.4025 52.9078 0
      vertex 63.9801 52.9078 46.3612
    endloop
  endfacet
  facet normal 0.392878 0.913545 0.105271
    outer loop
      vertex 76.4025 52.9078 0
      vertex 75.7536 53.1869 0
      vertex 63.9801 52.9078 46.3612
    endloop
  endfacet
  facet normal 0.392878 0.913545 0.105271
    outer loop
      vertex 63.9801 52.9078 46.3612
      vertex 75.7536 53.1869 0
      vertex 63.3746 53.1869 46.199
    endloop
  endfacet
  facet normal 0.567757 0.809017 0.15213
    outer loop
      vertex 75.7536 53.1869 0
      vertex 75.1788 53.5903 0
      vertex 63.3746 53.1869 46.199
    endloop
  endfacet
  facet normal 0.567757 0.809017 0.15213
    outer loop
      vertex 63.3746 53.1869 46.199
      vertex 75.1788 53.5903 0
      vertex 62.8384 53.5903 46.0553
    endloop
  endfacet
  facet normal 0.717823 0.669131 0.19234
    outer loop
      vertex 62.8384 53.5903 46.0553
      vertex 75.1788 53.5903 0
      vertex 74.7035 54.1002 0
    endloop
  endfacet
  facet normal 0.717823 0.669131 0.19234
    outer loop
      vertex 62.3949 54.1002 45.9365
      vertex 62.8384 53.5903 46.0553
      vertex 74.7035 54.1002 0
    endloop
  endfacet
  facet normal 0.836516 0.5 0.224144
    outer loop
      vertex 62.3949 54.1002 45.9365
      vertex 74.7035 54.1002 0
      vertex 74.3483 54.6944 0
    endloop
  endfacet
  facet normal 0.836516 0.5 0.224144
    outer loop
      vertex 62.0635 54.6944 45.8477
      vertex 62.3949 54.1002 45.9365
      vertex 74.3483 54.6944 0
    endloop
  endfacet
endsolid OpenSCAD_Model
